<?xml version="1.0" encoding="utf-8"?>
<!DOCTYPE svg PUBLIC "-//W3C//DTD SVG 1.1//EN" "http://www.w3.org/Graphics/SVG/1.1/DTD/svg11.dtd">
<svg version="1.1" id="Layer_1" xmlns="http://www.w3.org/2000/svg" xmlns:xlink="http://www.w3.org/1999/xlink" x="0px" y="0px"
	 width="576px" height="585px" viewBox="0 0 576 585" enable-background="new 0 0 576 585" xml:space="preserve">
<line fill="none" stroke="#231F20" stroke-width="2" stroke-miterlimit="10" x1="189" y1="468" x2="189" y2="108"/>
<polyline fill="none" stroke="#231F20" stroke-width="2" stroke-miterlimit="10" points="549,0 549,108 513,36 513,585 "/>
<polyline fill="none" stroke="#231F20" stroke-width="2" stroke-miterlimit="10" points="477,0 477,108 441,36 441,585 "/>
<polyline fill="none" stroke="#231F20" stroke-width="2" stroke-miterlimit="10" points="405,0 405,108 369,36 369,585 "/>
<polyline fill="none" stroke="#231F20" stroke-width="2" stroke-miterlimit="10" points="333,0 333,108 297,36 297,540 "/>
<polyline fill="none" stroke="#231F20" stroke-width="2" stroke-miterlimit="10" points="261,0 261,108 225,36 225,540 "/>
<polyline fill="none" stroke="#231F20" stroke-width="2" stroke-miterlimit="10" points="189,0 189,108 153,36 153,540 "/>
<polyline fill="none" stroke="#231F20" stroke-width="2" stroke-miterlimit="10" points="117,0 117,108 81,36 81,540 "/>
<polyline fill="none" stroke="#231F20" stroke-width="2" stroke-miterlimit="10" points="45,0 45,108 9,36 9,585 "/>
<line fill="none" stroke="#231F20" stroke-width="2" stroke-miterlimit="10" x1="549" y1="324" x2="549" y2="585"/>
<line fill="none" stroke="#231F20" stroke-width="2" stroke-miterlimit="10" x1="477" y1="468" x2="477" y2="108"/>
<line fill="none" stroke="#231F20" stroke-width="2" stroke-miterlimit="10" x1="333" y1="468" x2="333" y2="108"/>
<line fill="none" stroke="#231F20" stroke-width="2" stroke-miterlimit="10" x1="261" y1="252" x2="261" y2="396"/>
<line fill="none" stroke="#231F20" stroke-width="2" stroke-miterlimit="10" x1="117" y1="180" x2="117" y2="396"/>
<line fill="none" stroke="#231F20" stroke-width="2" stroke-miterlimit="10" x1="45" y1="108" x2="45" y2="585"/>
<g>
	<line fill="none" stroke="#FFFFFF" stroke-width="6" stroke-miterlimit="10" x1="261" y1="324" x2="405" y2="396"/>
	<line fill="none" stroke="#FFFFFF" stroke-width="6" stroke-miterlimit="10" x1="477" y1="108" x2="549" y2="180"/>
	<line fill="none" stroke="#FFFFFF" stroke-width="6" stroke-miterlimit="10" x1="405" y1="396" x2="477" y2="468"/>
	<line fill="none" stroke="#FFFFFF" stroke-width="6" stroke-miterlimit="10" x1="333" y1="108" x2="405" y2="180"/>
	<line fill="none" stroke="#FFFFFF" stroke-width="6" stroke-miterlimit="10" x1="261" y1="396" x2="333" y2="468"/>
	<line fill="none" stroke="#FFFFFF" stroke-width="6" stroke-miterlimit="10" x1="189" y1="108" x2="261" y2="180"/>
	<line fill="none" stroke="#FFFFFF" stroke-width="6" stroke-miterlimit="10" x1="117" y1="396" x2="189" y2="468"/>
	<line fill="none" stroke="#FFFFFF" stroke-width="6" stroke-miterlimit="10" x1="549" y1="324" x2="261" y2="252"/>
	<line fill="none" stroke="#FFFFFF" stroke-width="6" stroke-miterlimit="10" x1="405" y1="180" x2="549" y2="252"/>
	<line fill="none" stroke="#FFFFFF" stroke-width="6" stroke-miterlimit="10" x1="117" y1="180" x2="261" y2="252"/>
	<line fill="none" stroke="#FFFFFF" stroke-width="6" stroke-miterlimit="10" x1="117" y1="180" x2="45" y2="108"/>
</g>
<g>
	<line fill="none" stroke="#231F20" stroke-width="2" stroke-miterlimit="10" x1="261" y1="324" x2="405" y2="396"/>
	<line fill="none" stroke="#231F20" stroke-width="2" stroke-miterlimit="10" x1="477" y1="108" x2="549" y2="180"/>
	<line fill="none" stroke="#231F20" stroke-width="2" stroke-miterlimit="10" x1="405" y1="396" x2="477" y2="468"/>
	<line fill="none" stroke="#231F20" stroke-width="2" stroke-miterlimit="10" x1="333" y1="108" x2="405" y2="180"/>
	<line fill="none" stroke="#231F20" stroke-width="2" stroke-miterlimit="10" x1="261" y1="396" x2="333" y2="468"/>
	<line fill="none" stroke="#231F20" stroke-width="2" stroke-miterlimit="10" x1="189" y1="108" x2="261" y2="180"/>
	<line fill="none" stroke="#231F20" stroke-width="2" stroke-miterlimit="10" x1="117" y1="396" x2="189" y2="468"/>
	<line fill="none" stroke="#231F20" stroke-width="2" stroke-miterlimit="10" x1="549" y1="324" x2="261" y2="252"/>
	<line fill="none" stroke="#231F20" stroke-width="2" stroke-miterlimit="10" x1="405" y1="180" x2="549" y2="252"/>
	<line fill="none" stroke="#231F20" stroke-width="2" stroke-miterlimit="10" x1="117" y1="180" x2="261" y2="252"/>
	<line fill="none" stroke="#231F20" stroke-width="2" stroke-miterlimit="10" x1="117" y1="180" x2="45" y2="108"/>
</g>
<line fill="none" stroke="#231F20" stroke-width="2" stroke-miterlimit="10" x1="477" y1="468" x2="513" y2="539.999"/>
<line fill="none" stroke="#231F20" stroke-width="2" stroke-miterlimit="10" x1="405" y1="468" x2="441" y2="540"/>
<line fill="none" stroke="#231F20" stroke-width="2" stroke-miterlimit="10" x1="333" y1="468" x2="369" y2="540"/>
<line fill="none" stroke="#231F20" stroke-width="2" stroke-miterlimit="10" x1="477" y1="468" x2="477" y2="585"/>
<line fill="none" stroke="#231F20" stroke-width="2" stroke-miterlimit="10" x1="333" y1="468" x2="333" y2="585"/>
<line fill="none" stroke="#231F20" stroke-width="2" stroke-miterlimit="10" x1="81" y1="540" x2="81" y2="585"/>
<line fill="none" stroke="#231F20" stroke-width="2" stroke-miterlimit="10" x1="153" y1="540" x2="153" y2="585"/>
<line fill="none" stroke="#231F20" stroke-width="2" stroke-miterlimit="10" x1="225" y1="585" x2="225" y2="540"/>
<polyline fill="none" stroke="#231F20" stroke-width="2" stroke-miterlimit="10" points="261,468 297,540 297,585 "/>
<polyline fill="none" stroke="#231F20" stroke-width="2" stroke-miterlimit="10" points="189,585 189,468 225,540 "/>
<line fill="none" stroke="#231F20" stroke-width="2" stroke-miterlimit="10" x1="153" y1="540" x2="117" y2="468"/>
<line fill="none" stroke="#231F20" stroke-width="2" stroke-miterlimit="10" x1="45" y1="468" x2="81" y2="540"/>
<line fill="none" stroke="#231F20" stroke-width="2" stroke-miterlimit="10" x1="405" y1="585" x2="405" y2="396"/>
<path fill="none" stroke="#231F20" stroke-width="2" stroke-miterlimit="10" d="M405,396"/>
<path fill="none" stroke="#231F20" stroke-width="2" stroke-miterlimit="10" d="M261,324"/>
<line fill="none" stroke="#231F20" stroke-width="2" stroke-miterlimit="10" x1="261" y1="396" x2="261" y2="585"/>
<line fill="none" stroke="#231F20" stroke-width="2" stroke-miterlimit="10" x1="549" y1="180" x2="549" y2="108"/>
<path fill="none" stroke="#231F20" stroke-width="2" stroke-miterlimit="10" d="M405,396"/>
<line fill="none" stroke="#231F20" stroke-width="2" stroke-miterlimit="10" x1="405" y1="180" x2="405" y2="108"/>
<line fill="none" stroke="#231F20" stroke-width="2" stroke-miterlimit="10" x1="117" y1="396" x2="117" y2="585"/>
<line fill="none" stroke="#231F20" stroke-width="2" stroke-miterlimit="10" x1="261" y1="180" x2="261" y2="108"/>
<path fill="none" stroke="#231F20" stroke-width="2" stroke-miterlimit="10" d="M261,252"/>
<line fill="none" stroke="#231F20" stroke-width="2" stroke-miterlimit="10" x1="549" y1="252" x2="549" y2="324"/>
<path fill="none" stroke="#231F20" stroke-width="2" stroke-miterlimit="10" d="M261,252"/>
<line fill="none" stroke="#231F20" stroke-width="2" stroke-miterlimit="10" x1="405" y1="180" x2="405" y2="396"/>
<line fill="none" stroke="#231F20" stroke-width="2" stroke-miterlimit="10" x1="549" y1="252" x2="549" y2="180"/>
<path fill="none" stroke="#231F20" stroke-width="2" stroke-miterlimit="10" d="M405,180"/>
<line fill="none" stroke="#231F20" stroke-width="2" stroke-miterlimit="10" x1="261" y1="252" x2="261" y2="180"/>
<path fill="none" stroke="#231F20" stroke-width="2" stroke-miterlimit="10" d="M117,180"/>
<line fill="none" stroke="#231F20" stroke-width="2" stroke-miterlimit="10" x1="117" y1="108" x2="117" y2="180"/>
<g>
	<circle fill="#FFFFDC" stroke="#231F20" stroke-miterlimit="10" cx="261" cy="252" r="18"/>
	<line fill="none" stroke="#231F20" stroke-width="2" stroke-miterlimit="10" x1="261" y1="243" x2="261" y2="261"/>
	<line fill="none" stroke="#231F20" stroke-width="2" stroke-miterlimit="10" x1="252" y1="252" x2="270" y2="252"/>
</g>
<g>
	<circle fill="#FFFFDC" stroke="#231F20" stroke-miterlimit="10" cx="549" cy="252" r="18"/>
	<line fill="none" stroke="#231F20" stroke-width="2" stroke-miterlimit="10" x1="549" y1="243" x2="549" y2="261"/>
	<line fill="none" stroke="#231F20" stroke-width="2" stroke-miterlimit="10" x1="540" y1="252" x2="558" y2="252"/>
</g>
<g>
	<circle fill="#FFFFDC" stroke="#231F20" stroke-miterlimit="10" cx="261" cy="180" r="18"/>
	<line fill="none" stroke="#231F20" stroke-width="2" stroke-miterlimit="10" x1="261" y1="171" x2="261" y2="189"/>
	<line fill="none" stroke="#231F20" stroke-width="2" stroke-miterlimit="10" x1="252" y1="180" x2="270" y2="180"/>
</g>
<g>
	<circle fill="#FFFFDC" stroke="#231F20" stroke-miterlimit="10" cx="549" cy="180" r="18"/>
	<line fill="none" stroke="#231F20" stroke-width="2" stroke-miterlimit="10" x1="549" y1="171" x2="549" y2="189"/>
	<polyline fill="none" stroke="#231F20" stroke-width="2" stroke-miterlimit="10" points="540,180 549,180 558,180 	"/>
</g>
<g>
	<circle fill="#FFFFDC" stroke="#231F20" stroke-miterlimit="10" cx="117" cy="180" r="18"/>
	<line fill="none" stroke="#231F20" stroke-width="2" stroke-miterlimit="10" x1="117" y1="171" x2="117" y2="189"/>
	<line fill="none" stroke="#231F20" stroke-width="2" stroke-miterlimit="10" x1="108" y1="180" x2="126" y2="180"/>
</g>
<g>
	<circle fill="#FFFFDC" stroke="#231F20" stroke-miterlimit="10" cx="189" cy="468" r="18"/>
	<line fill="none" stroke="#231F20" stroke-width="2" stroke-miterlimit="10" x1="189" y1="459" x2="189" y2="477"/>
	<line fill="none" stroke="#231F20" stroke-width="2" stroke-miterlimit="10" x1="180" y1="468" x2="198" y2="468"/>
</g>
<g>
	<circle fill="#FFFFDC" stroke="#231F20" stroke-miterlimit="10" cx="333" cy="468" r="18"/>
	<line fill="none" stroke="#231F20" stroke-width="2" stroke-miterlimit="10" x1="333" y1="459" x2="333" y2="477"/>
	<line fill="none" stroke="#231F20" stroke-width="2" stroke-miterlimit="10" x1="324" y1="468" x2="342" y2="468"/>
</g>
<g>
	<circle fill="#FFFFDC" stroke="#231F20" stroke-miterlimit="10" cx="477" cy="468" r="18"/>
	<line fill="none" stroke="#231F20" stroke-width="2" stroke-miterlimit="10" x1="477" y1="459" x2="477" y2="477"/>
	<line fill="none" stroke="#231F20" stroke-width="2" stroke-miterlimit="10" x1="468" y1="468" x2="486" y2="468"/>
</g>
<g>
	<circle fill="#FFFFDC" stroke="#231F20" stroke-miterlimit="10" cx="405" cy="180" r="18"/>
	<line fill="none" stroke="#231F20" stroke-width="2" stroke-miterlimit="10" x1="405" y1="171" x2="405" y2="189"/>
	<line fill="none" stroke="#231F20" stroke-width="2" stroke-miterlimit="10" x1="396" y1="180" x2="414" y2="180"/>
</g>
<g>
	<circle fill="#FFFFDC" stroke="#231F20" stroke-miterlimit="10" cx="261" cy="108.001" r="18"/>
	<line fill="none" stroke="#231F20" stroke-width="2" stroke-miterlimit="10" x1="261" y1="99" x2="261" y2="117"/>
	<line fill="none" stroke="#231F20" stroke-width="2" stroke-miterlimit="10" x1="252" y1="108" x2="270" y2="108"/>
</g>
<g>
	<circle fill="#FFFFDC" stroke="#231F20" stroke-miterlimit="10" cx="549" cy="108" r="18"/>
	<line fill="none" stroke="#231F20" stroke-width="2" stroke-miterlimit="10" x1="549" y1="99" x2="549" y2="117"/>
	<polyline fill="none" stroke="#231F20" stroke-width="2" stroke-miterlimit="10" points="540,108 549,108 558,108 	"/>
</g>
<g>
	<circle fill="#FFFFDC" stroke="#231F20" stroke-miterlimit="10" cx="117" cy="108.001" r="18"/>
	<line fill="none" stroke="#231F20" stroke-width="2" stroke-miterlimit="10" x1="117" y1="99" x2="117" y2="117"/>
	<line fill="none" stroke="#231F20" stroke-width="2" stroke-miterlimit="10" x1="108" y1="108" x2="126" y2="108"/>
</g>
<g>
	<circle fill="#FFFFDC" stroke="#231F20" stroke-miterlimit="10" cx="405" cy="108" r="18"/>
	<line fill="none" stroke="#231F20" stroke-width="2" stroke-miterlimit="10" x1="405" y1="99" x2="405" y2="117"/>
	<line fill="none" stroke="#231F20" stroke-width="2" stroke-miterlimit="10" x1="396" y1="108" x2="414" y2="108"/>
</g>
<g>
	<circle fill="#FFFFDC" stroke="#231F20" stroke-miterlimit="10" cx="189" cy="108.001" r="18"/>
	<line fill="none" stroke="#231F20" stroke-width="2" stroke-miterlimit="10" x1="189" y1="99" x2="189" y2="117"/>
	<line fill="none" stroke="#231F20" stroke-width="2" stroke-miterlimit="10" x1="180" y1="108" x2="198" y2="108"/>
</g>
<g>
	<circle fill="#FFFFDC" stroke="#231F20" stroke-miterlimit="10" cx="477" cy="108" r="18"/>
	<line fill="none" stroke="#231F20" stroke-width="2" stroke-miterlimit="10" x1="477" y1="99" x2="477" y2="117"/>
	<polyline fill="none" stroke="#231F20" stroke-width="2" stroke-miterlimit="10" points="468,108 477,108 486,108 	"/>
</g>
<g>
	<circle fill="#FFFFDC" stroke="#231F20" stroke-miterlimit="10" cx="45" cy="108.001" r="18"/>
	<line fill="none" stroke="#231F20" stroke-width="2" stroke-miterlimit="10" x1="45" y1="99" x2="45" y2="117"/>
	<line fill="none" stroke="#231F20" stroke-width="2" stroke-miterlimit="10" x1="36" y1="108" x2="54" y2="108"/>
</g>
<g>
	<circle fill="#FFFFDC" stroke="#231F20" stroke-miterlimit="10" cx="333" cy="108" r="18"/>
	<line fill="none" stroke="#231F20" stroke-width="2" stroke-miterlimit="10" x1="333" y1="99" x2="333" y2="117"/>
	<line fill="none" stroke="#231F20" stroke-width="2" stroke-miterlimit="10" x1="324" y1="108" x2="342" y2="108"/>
</g>
<g>
	<circle fill="#FFFFDC" stroke="#231F20" stroke-miterlimit="10" cx="297" cy="540" r="18"/>
	<line fill="none" stroke="#231F20" stroke-width="2" stroke-miterlimit="10" x1="297" y1="531" x2="297" y2="549"/>
	<line fill="none" stroke="#231F20" stroke-width="2" stroke-miterlimit="10" x1="288" y1="540" x2="306" y2="540"/>
</g>
<g>
	<circle fill="#FFFFDC" stroke="#231F20" stroke-miterlimit="10" cx="153" cy="540" r="18"/>
	<line fill="none" stroke="#231F20" stroke-width="2" stroke-miterlimit="10" x1="153" y1="531" x2="153" y2="549"/>
	<line fill="none" stroke="#231F20" stroke-width="2" stroke-miterlimit="10" x1="144" y1="540" x2="162" y2="540"/>
</g>
<g>
	<circle fill="#FFFFDC" stroke="#231F20" stroke-miterlimit="10" cx="441" cy="540" r="18"/>
	<line fill="none" stroke="#231F20" stroke-width="2" stroke-miterlimit="10" x1="441" y1="530.999" x2="441" y2="548.999"/>
	<line fill="none" stroke="#231F20" stroke-width="2" stroke-miterlimit="10" x1="432" y1="539.999" x2="450" y2="539.999"/>
</g>
<g>
	<circle fill="#FFFFDC" stroke="#231F20" stroke-miterlimit="10" cx="225" cy="540" r="18"/>
	<line fill="none" stroke="#231F20" stroke-width="2" stroke-miterlimit="10" x1="225" y1="531" x2="225" y2="549"/>
	<line fill="none" stroke="#231F20" stroke-width="2" stroke-miterlimit="10" x1="216" y1="540" x2="234" y2="540"/>
</g>
<g>
	<circle fill="#FFFFDC" stroke="#231F20" stroke-miterlimit="10" cx="513" cy="540" r="18"/>
	<line fill="none" stroke="#231F20" stroke-width="2" stroke-miterlimit="10" x1="513" y1="530.999" x2="513" y2="548.999"/>
	<polyline fill="none" stroke="#231F20" stroke-width="2" stroke-miterlimit="10" points="504,539.999 513,539.999 522,539.999 	"/>
</g>
<g>
	<circle fill="#FFFFDC" stroke="#231F20" stroke-miterlimit="10" cx="81" cy="540" r="18"/>
	<line fill="none" stroke="#231F20" stroke-width="2" stroke-miterlimit="10" x1="81" y1="531" x2="81" y2="549"/>
	<line fill="none" stroke="#231F20" stroke-width="2" stroke-miterlimit="10" x1="72" y1="540" x2="90" y2="540"/>
</g>
<g>
	<circle fill="#FFFFDC" stroke="#231F20" stroke-miterlimit="10" cx="369" cy="540" r="18"/>
	<line fill="none" stroke="#231F20" stroke-width="2" stroke-miterlimit="10" x1="369" y1="530.999" x2="369" y2="548.999"/>
	<line fill="none" stroke="#231F20" stroke-width="2" stroke-miterlimit="10" x1="360" y1="539.999" x2="378" y2="539.999"/>
</g>
<g>
	<circle fill="#FFFFDC" stroke="#231F20" stroke-miterlimit="10" cx="549" cy="324" r="18"/>
	<line fill="none" stroke="#231F20" stroke-width="2" stroke-miterlimit="10" x1="549" y1="315" x2="549" y2="333"/>
	<polyline fill="none" stroke="#231F20" stroke-width="2" stroke-miterlimit="10" points="540,324 549,324 558,324 	"/>
</g>
<g>
	<circle fill="#FFFFDC" stroke="#231F20" stroke-miterlimit="10" cx="405" cy="396" r="18"/>
	<line fill="none" stroke="#231F20" stroke-width="2" stroke-miterlimit="10" x1="405" y1="387" x2="405" y2="405"/>
	<line fill="none" stroke="#231F20" stroke-width="2" stroke-miterlimit="10" x1="396" y1="396" x2="414" y2="396"/>
</g>
<circle fill="#FFFFDC" stroke="#231F20" stroke-miterlimit="10" cx="261" cy="324" r="4.5"/>
<circle fill="#FFFFDC" stroke="#231F20" stroke-miterlimit="10" cx="261" cy="396" r="4.5"/>
<circle fill="#FFFFDC" stroke="#231F20" stroke-miterlimit="10" cx="117" cy="396" r="4.5"/>
<line fill="none" stroke="#231F20" stroke-width="2" stroke-miterlimit="10" x1="9" y1="0" x2="9" y2="36"/>
<line fill="none" stroke="#231F20" stroke-width="2" stroke-miterlimit="10" x1="81" y1="0" x2="81" y2="36"/>
<line fill="none" stroke="#231F20" stroke-width="2" stroke-miterlimit="10" x1="153" y1="0" x2="153" y2="36"/>
<line fill="none" stroke="#231F20" stroke-width="2" stroke-miterlimit="10" x1="225" y1="0" x2="225" y2="36"/>
<line fill="none" stroke="#231F20" stroke-width="2" stroke-miterlimit="10" x1="297" y1="0" x2="297" y2="36"/>
<line fill="none" stroke="#231F20" stroke-width="2" stroke-miterlimit="10" x1="369" y1="0" x2="369" y2="36"/>
<line fill="none" stroke="#231F20" stroke-width="2" stroke-miterlimit="10" x1="441" y1="0" x2="441" y2="36"/>
<line fill="none" stroke="#231F20" stroke-width="2" stroke-miterlimit="10" x1="513" y1="0" x2="513" y2="36"/>
<circle fill="#FFFFDC" stroke="#231F20" stroke-miterlimit="10" cx="9" cy="36" r="4.5"/>
<circle fill="#FFFFDC" stroke="#231F20" stroke-miterlimit="10" cx="81" cy="36" r="4.5"/>
<circle fill="#FFFFDC" stroke="#231F20" stroke-miterlimit="10" cx="153" cy="36" r="4.5"/>
<circle fill="#FFFFDC" stroke="#231F20" stroke-miterlimit="10" cx="225" cy="36" r="4.5"/>
<circle fill="#FFFFDC" stroke="#231F20" stroke-miterlimit="10" cx="297" cy="36" r="4.5"/>
<circle fill="#FFFFDC" stroke="#231F20" stroke-miterlimit="10" cx="369" cy="36" r="4.5"/>
<circle fill="#FFFFDC" stroke="#231F20" stroke-miterlimit="10" cx="441" cy="36" r="4.5"/>
<circle fill="#FFFFDC" stroke="#231F20" stroke-miterlimit="10" cx="513" cy="36" r="4.5"/>
<circle fill="#FFFFDC" stroke="#231F20" stroke-miterlimit="10" cx="45" cy="468" r="4.5"/>
<circle fill="#FFFFDC" stroke="#231F20" stroke-miterlimit="10" cx="117" cy="468" r="4.5"/>
<circle fill="#FFFFDC" stroke="#231F20" stroke-miterlimit="10" cx="261" cy="468" r="4.5"/>
<circle fill="#FFFFDC" stroke="#231F20" stroke-miterlimit="10" cx="405" cy="468" r="4.5"/>
</svg>
