<?xml version="1.0" encoding="UTF-8" standalone="no"?>
<svg
   xmlns:dc="http://purl.org/dc/elements/1.1/"
   xmlns:cc="http://creativecommons.org/ns#"
   xmlns:rdf="http://www.w3.org/1999/02/22-rdf-syntax-ns#"
   xmlns:svg="http://www.w3.org/2000/svg"
   xmlns="http://www.w3.org/2000/svg"
   xmlns:sodipodi="http://sodipodi.sourceforge.net/DTD/sodipodi-0.dtd"
   xmlns:inkscape="http://www.inkscape.org/namespaces/inkscape"
   color-rendering="auto"
   color-interpolation="auto"
   text-rendering="auto"
   width="680"
   stroke-miterlimit="10"
   shape-rendering="auto"
   font-weight="normal"
   viewBox="0 0 680 380"
   height="380"
   font-style="normal"
   font-size="12px"
   image-rendering="auto"
   id="svg2"
   version="1.1"
   inkscape:version="0.48.5 r10040"
   sodipodi:docname="fabioh5_arrows.svg"
   font-family="'Dialog'"
   stroke-dashoffset="0"
   stroke-dasharray="none"
   stroke-opacity="1"
   stroke-linejoin="miter"
   stroke-linecap="square"
   stroke-width="1"
   stroke="black"
   fill-opacity="1"
   fill="black">
  <metadata
     id="metadata217">
    <rdf:RDF>
      <cc:Work
         rdf:about="">
        <dc:format>image/svg+xml</dc:format>
        <dc:type
           rdf:resource="http://purl.org/dc/dcmitype/StillImage" />
      </cc:Work>
    </rdf:RDF>
  </metadata>
  <sodipodi:namedview
     pagecolor="#ffffff"
     bordercolor="#666666"
     borderopacity="1"
     objecttolerance="10"
     gridtolerance="10"
     guidetolerance="10"
     inkscape:pageopacity="0"
     inkscape:pageshadow="2"
     inkscape:window-width="1676"
     inkscape:window-height="872"
     id="namedview215"
     showgrid="false"
     inkscape:zoom="1.3934163"
     inkscape:cx="372.1502"
     inkscape:cy="146.93155"
     inkscape:window-x="351"
     inkscape:window-y="345"
     inkscape:window-maximized="0"
     inkscape:current-layer="svg2" />
  <!--Generated by the Batik Graphics2D SVG Generator-->
  <defs
     id="genericDefs" />
  <g
     id="g5">
    <defs
       id="defs1">
      <clipPath
         clipPathUnits="userSpaceOnUse"
         id="clipPath1">
        <path
           d="M0 0 L2147483647 0 L2147483647 2147483647 L0 2147483647 L0 0 Z"
           id="path9" />
      </clipPath>
      <clipPath
         clipPathUnits="userSpaceOnUse"
         id="clipPath2">
        <path
           d="M0 0 L0 340 L250 340 L250 0 Z"
           id="path12" />
      </clipPath>
      <clipPath
         clipPathUnits="userSpaceOnUse"
         id="clipPath3">
        <path
           d="M0 0 L0 300 L230 300 L230 0 Z"
           id="path15" />
      </clipPath>
      <clipPath
         clipPathUnits="userSpaceOnUse"
         id="clipPath4">
        <path
           d="M0 0 L0 110 L230 110 L230 0 Z"
           id="path18" />
      </clipPath>
      <clipPath
         clipPathUnits="userSpaceOnUse"
         id="clipPath5">
        <path
           d="M0 0 L0 180 L230 180 L230 0 Z"
           id="path21" />
      </clipPath>
      <clipPath
         clipPathUnits="userSpaceOnUse"
         id="clipPath6">
        <path
           d="M0 0 L0 50 L210 50 L210 0 Z"
           id="path24" />
      </clipPath>
      <clipPath
         clipPathUnits="userSpaceOnUse"
         id="clipPath7">
        <path
           d="M0 0 L0 80 L210 80 L210 0 Z"
           id="path27" />
      </clipPath>
      <clipPath
         clipPathUnits="userSpaceOnUse"
         id="clipPath8">
        <path
           d="M0 0 L0 170 L210 170 L210 0 Z"
           id="path30" />
      </clipPath>
      <clipPath
         clipPathUnits="userSpaceOnUse"
         id="clipPath9">
        <path
           d="M0 0 L0 30 L210 30 L210 0 Z"
           id="path33" />
      </clipPath>
      <clipPath
         clipPathUnits="userSpaceOnUse"
         id="clipPath10">
        <path
           d="M0 0 L0 40 L190 40 L190 0 Z"
           id="path36" />
      </clipPath>
      <clipPath
         clipPathUnits="userSpaceOnUse"
         id="clipPath11">
        <path
           d="M0 0 L0 30 L190 30 L190 0 Z"
           id="path39" />
      </clipPath>
      <clipPath
         clipPathUnits="userSpaceOnUse"
         id="clipPath12">
        <path
           d="M0 0 L0 90 L190 90 L190 0 Z"
           id="path42" />
      </clipPath>
      <clipPath
         clipPathUnits="userSpaceOnUse"
         id="clipPath13">
        <path
           d="M0 0 L0 30 L170 30 L170 0 Z"
           id="path45" />
      </clipPath>
    </defs>
    <g
       transform="translate(410,20)"
       id="g47"
       stroke-opacity="0.4902"
       stroke="rgb(204,204,238)"
       fill-opacity="0.4902"
       fill="rgb(204,204,238)">
      <rect
         x="0.5"
         width="248.5"
         height="338.5"
         y="0.5"
         clip-path="url(#clipPath2)"
         id="rect49"
         stroke="none" />
    </g>
    <g
       transform="translate(410,20)"
       id="g51">
      <rect
         x="0.5"
         width="248.5"
         height="338.5"
         y="0.5"
         clip-path="url(#clipPath2)"
         id="rect53"
         fill="none" />
      <text
         x="90"
         font-size="14px"
         y="18.1094"
         clip-path="url(#clipPath2)"
         xml:space="preserve"
         id="text55"
         font-family="sans-serif"
         stroke="none">Nexus file</text>
    </g>
    <g
       transform="translate(20,20)"
       id="g57"
       stroke-opacity="0.4902"
       stroke="rgb(204,204,238)"
       fill-opacity="0.4902"
       fill="rgb(204,204,238)">
      <rect
         x="0.5"
         width="248.5"
         height="338.5"
         y="0.5"
         clip-path="url(#clipPath2)"
         id="rect59"
         stroke="none" />
    </g>
    <g
       transform="translate(20,20)"
       id="g61">
      <rect
         x="0.5"
         width="248.5"
         height="338.5"
         y="0.5"
         clip-path="url(#clipPath2)"
         id="rect63"
         fill="none" />
      <text
         x="73"
         font-size="14px"
         y="18.1094"
         clip-path="url(#clipPath2)"
         xml:space="preserve"
         id="text65"
         font-family="sans-serif"
         stroke="none">EDF file (fabio)</text>
    </g>
    <g
       transform="translate(420,50)"
       id="g67"
       stroke-opacity="0.4902"
       stroke="rgb(255,255,255)"
       fill-opacity="0.4902"
       fill="rgb(255,255,255)">
      <rect
         x="0.5"
         width="228.5"
         height="298.5"
         y="0.5"
         clip-path="url(#clipPath3)"
         id="rect69"
         stroke="none" />
    </g>
    <g
       transform="translate(420,50)"
       id="g71">
      <rect
         x="0.5"
         width="228.5"
         height="298.5"
         y="0.5"
         clip-path="url(#clipPath3)"
         id="rect73"
         fill="none" />
      <text
         x="90"
         font-size="14px"
         y="18.1094"
         clip-path="url(#clipPath3)"
         xml:space="preserve"
         id="text75"
         font-family="sans-serif"
         stroke="none">scan_0</text>
    </g>
    <g
       transform="translate(30,240)"
       id="g77"
       stroke-opacity="0.4902"
       stroke="rgb(255,255,255)"
       fill-opacity="0.4902"
       fill="rgb(255,255,255)">
      <rect
         x="0.5"
         width="228.5"
         height="108.5"
         y="0.5"
         clip-path="url(#clipPath4)"
         id="rect79"
         stroke="none" />
    </g>
    <g
       transform="translate(30,240)"
       id="g81">
      <rect
         x="0.5"
         width="228.5"
         height="108.5"
         y="0.5"
         clip-path="url(#clipPath4)"
         id="rect83"
         fill="none" />
      <text
         x="86"
         font-size="14px"
         y="18.1094"
         clip-path="url(#clipPath4)"
         xml:space="preserve"
         id="text85"
         font-family="sans-serif"
         stroke="none">Frame 2</text>
    </g>
    <g
       transform="translate(30,50)"
       id="g87"
       stroke-opacity="0.4902"
       stroke="rgb(255,255,255)"
       fill-opacity="0.4902"
       fill="rgb(255,255,255)">
      <rect
         x="0.5"
         width="228.5"
         height="178.5"
         y="0.5"
         clip-path="url(#clipPath5)"
         id="rect89"
         stroke="none" />
    </g>
    <g
       transform="translate(30,50)"
       id="g91">
      <rect
         x="0.5"
         width="228.5"
         height="178.5"
         y="0.5"
         clip-path="url(#clipPath5)"
         id="rect93"
         fill="none" />
      <text
         x="86"
         font-size="14px"
         y="18.1094"
         clip-path="url(#clipPath5)"
         xml:space="preserve"
         id="text95"
         font-family="sans-serif"
         stroke="none">Frame 1</text>
    </g>
    <g
       transform="translate(40,170)"
       id="g97"
       stroke-opacity="0.4902"
       stroke="rgb(204,204,238)"
       fill-opacity="0.4902"
       fill="rgb(204,204,238)">
      <rect
         x="0.5"
         width="208.5"
         height="48.5"
         y="0.5"
         clip-path="url(#clipPath6)"
         id="rect99"
         stroke="none" />
    </g>
    <g
       transform="translate(40,170)"
       id="g101">
      <rect
         x="0.5"
         width="208.5"
         height="48.5"
         y="0.5"
         clip-path="url(#clipPath6)"
         id="rect103"
         fill="none" />
      <text
         x="83"
         font-size="14px"
         y="18.1094"
         clip-path="url(#clipPath6)"
         xml:space="preserve"
         id="text105"
         font-family="sans-serif"
         stroke="none">Image</text>
      <path
         d="M1 24.1094 L209 24.1094"
         clip-path="url(#clipPath6)"
         id="path107"
         fill="none" />
      <text
         x="5"
         font-size="14px"
         y="39.2188"
         clip-path="url(#clipPath6)"
         xml:space="preserve"
         id="text109"
         font-family="sans-serif"
         stroke="none">+data (2d)</text>
    </g>
    <g
       transform="translate(430,260)"
       id="g111"
       stroke-opacity="0.4902"
       stroke="rgb(204,204,238)"
       fill-opacity="0.4902"
       fill="rgb(204,204,238)">
      <rect
         x="0.5"
         width="208.5"
         height="78.5"
         y="0.5"
         clip-path="url(#clipPath7)"
         id="rect113"
         stroke="none" />
    </g>
    <g
       transform="translate(430,260)"
       id="g115">
      <rect
         x="0.5"
         width="208.5"
         height="78.5"
         y="0.5"
         clip-path="url(#clipPath7)"
         id="rect117"
         fill="none" />
      <text
         x="56"
         font-size="14px"
         y="18.1094"
         clip-path="url(#clipPath7)"
         xml:space="preserve"
         id="text119"
         font-family="sans-serif"
         stroke="none">measurement</text>
    </g>
    <g
       transform="translate(430,80)"
       id="g121"
       stroke-opacity="0.4902"
       stroke="rgb(204,204,238)"
       fill-opacity="0.4902"
       fill="rgb(204,204,238)">
      <rect
         x="0.5"
         width="208.5"
         height="168.5"
         y="0.5"
         clip-path="url(#clipPath8)"
         id="rect123"
         stroke="none" />
    </g>
    <g
       transform="translate(430,80)"
       id="g125">
      <rect
         x="0.5"
         width="208.5"
         height="168.5"
         y="0.5"
         clip-path="url(#clipPath8)"
         id="rect127"
         fill="none" />
      <text
         x="66"
         font-size="14px"
         y="18.1094"
         clip-path="url(#clipPath8)"
         xml:space="preserve"
         id="text129"
         font-family="sans-serif"
         stroke="none">instrument</text>
    </g>
    <g
       transform="translate(40,310)"
       id="g131"
       stroke-opacity="0.4902"
       stroke="rgb(204,204,238)"
       fill-opacity="0.4902"
       fill="rgb(204,204,238)">
      <rect
         x="0.5"
         width="208.5"
         height="28.5"
         y="0.5"
         clip-path="url(#clipPath9)"
         id="rect133"
         stroke="none" />
    </g>
    <g
       transform="translate(40,310)"
       id="g135">
      <rect
         x="0.5"
         width="208.5"
         height="28.5"
         y="0.5"
         clip-path="url(#clipPath9)"
         id="rect137"
         fill="none" />
      <text
         x="83"
         font-size="14px"
         y="18.1094"
         clip-path="url(#clipPath9)"
         xml:space="preserve"
         id="text139"
         font-family="sans-serif"
         stroke="none">Image</text>
    </g>
    <g
       transform="translate(40,80)"
       id="g141"
       stroke-opacity="0.4902"
       stroke="rgb(204,204,238)"
       fill-opacity="0.4902"
       fill="rgb(204,204,238)">
      <rect
         x="0.5"
         width="208.5"
         height="78.5"
         y="0.5"
         clip-path="url(#clipPath7)"
         id="rect143"
         stroke="none" />
    </g>
    <g
       transform="translate(40,80)"
       id="g145">
      <rect
         x="0.5"
         width="208.5"
         height="78.5"
         y="0.5"
         clip-path="url(#clipPath7)"
         id="rect147"
         fill="none" />
      <text
         x="79"
         font-size="14px"
         y="18.1094"
         clip-path="url(#clipPath7)"
         xml:space="preserve"
         id="text149"
         font-family="sans-serif"
         stroke="none">Header</text>
      <path
         d="M1 24.1094 L209 24.1094"
         clip-path="url(#clipPath7)"
         id="path151"
         fill="none" />
      <text
         x="5"
         font-size="14px"
         y="39.2188"
         clip-path="url(#clipPath7)"
         xml:space="preserve"
         id="text153"
         font-family="sans-serif"
         stroke="none">+key/value</text>
      <text
         x="5"
         font-size="14px"
         y="55.3281"
         clip-path="url(#clipPath7)"
         xml:space="preserve"
         id="text155"
         font-family="sans-serif"
         stroke="none">+motor_mne/motor_pos</text>
      <text
         x="5"
         font-size="14px"
         y="71.4375"
         clip-path="url(#clipPath7)"
         xml:space="preserve"
         id="text157"
         font-family="sans-serif"
         stroke="none">+counter_mne/counter_pos</text>
    </g>
    <g
       transform="translate(40,270)"
       id="g159"
       stroke-opacity="0.4902"
       stroke="rgb(204,204,238)"
       fill-opacity="0.4902"
       fill="rgb(204,204,238)">
      <rect
         x="0.5"
         width="208.5"
         height="28.5"
         y="0.5"
         clip-path="url(#clipPath9)"
         id="rect161"
         stroke="none" />
    </g>
    <g
       transform="translate(40,270)"
       id="g163">
      <rect
         x="0.5"
         width="208.5"
         height="28.5"
         y="0.5"
         clip-path="url(#clipPath9)"
         id="rect165"
         fill="none" />
      <text
         x="79"
         font-size="14px"
         y="18.1094"
         clip-path="url(#clipPath9)"
         xml:space="preserve"
         id="text167"
         font-family="sans-serif"
         stroke="none">Header</text>
    </g>
    <g
       transform="translate(440,290)"
       id="g169"
       stroke-opacity="0.4902"
       stroke="rgb(255,255,255)"
       fill-opacity="0.4902"
       fill="rgb(255,255,255)">
      <rect
         x="0.5"
         width="188.5"
         height="38.5"
         y="0.5"
         clip-path="url(#clipPath10)"
         id="rect171"
         stroke="none" />
    </g>
    <g
       transform="translate(440,290)"
       id="g173">
      <rect
         x="0.5"
         width="188.5"
         height="38.5"
         y="0.5"
         clip-path="url(#clipPath10)"
         id="rect175"
         fill="none" />
      <text
         x="65"
         font-size="14px"
         y="18.1094"
         clip-path="url(#clipPath10)"
         xml:space="preserve"
         id="text177"
         font-family="sans-serif"
         stroke="none">image_0</text>
      <text
         x="28"
         font-size="14px"
         y="34.2188"
         clip-path="url(#clipPath10)"
         xml:space="preserve"
         id="text179"
         font-family="sans-serif"
         stroke="none">(link to detector_0)</text>
    </g>
    <g
       transform="translate(440,210)"
       id="g181"
       stroke-opacity="0.4902"
       stroke="rgb(255,255,255)"
       fill-opacity="0.4902"
       fill="rgb(255,255,255)">
      <rect
         x="0.5"
         width="188.5"
         height="28.5"
         y="0.5"
         clip-path="url(#clipPath11)"
         id="rect183"
         stroke="none" />
    </g>
    <g
       transform="translate(440,210)"
       id="g185">
      <rect
         x="0.5"
         width="188.5"
         height="28.5"
         y="0.5"
         clip-path="url(#clipPath11)"
         id="rect187"
         fill="none" />
      <text
         x="56"
         font-size="14px"
         y="18.1094"
         clip-path="url(#clipPath11)"
         xml:space="preserve"
         id="text189"
         font-family="sans-serif"
         stroke="none">positioners</text>
    </g>
    <g
       transform="translate(440,110)"
       id="g191"
       stroke-opacity="0.4902"
       stroke="rgb(255,255,255)"
       fill-opacity="0.4902"
       fill="rgb(255,255,255)">
      <rect
         x="0.5"
         width="188.5"
         height="88.5"
         y="0.5"
         clip-path="url(#clipPath12)"
         id="rect193"
         stroke="none" />
    </g>
    <g
       transform="translate(440,110)"
       id="g195">
      <rect
         x="0.5"
         width="188.5"
         height="88.5"
         y="0.5"
         clip-path="url(#clipPath12)"
         id="rect197"
         fill="none" />
      <text
         x="57"
         font-size="14px"
         y="18.1094"
         clip-path="url(#clipPath12)"
         xml:space="preserve"
         id="text199"
         font-family="sans-serif"
         stroke="none">detector_0</text>
      <path
         d="M1 24.1094 L189 24.1094"
         clip-path="url(#clipPath12)"
         id="path201"
         fill="none" />
      <text
         x="5"
         font-size="14px"
         y="39.2188"
         clip-path="url(#clipPath12)"
         xml:space="preserve"
         id="text203"
         font-family="sans-serif"
         stroke="none">+data (3d)</text>
    </g>
    <g
       transform="translate(450,160)"
       id="g205"
       stroke-opacity="0.4902"
       stroke="rgb(204,204,238)"
       fill-opacity="0.4902"
       fill="rgb(204,204,238)">
      <rect
         x="0.5"
         width="168.5"
         height="28.5"
         y="0.5"
         clip-path="url(#clipPath13)"
         id="rect207"
         stroke="none" />
    </g>
    <g
       transform="translate(450,160)"
       id="g209">
      <rect
         x="0.5"
         width="168.5"
         height="28.5"
         y="0.5"
         clip-path="url(#clipPath13)"
         id="rect211"
         fill="none" />
      <text
         x="62"
         font-size="14px"
         y="18.1094"
         clip-path="url(#clipPath13)"
         xml:space="preserve"
         id="text213"
         font-family="sans-serif"
         stroke="none">others</text>
    </g>
  </g>
  <g
     id="g4332">
    <path
       inkscape:connector-curvature="0"
       d="m 243.51446,108 c 1.52156,0 3.04313,0 4.56469,0 1.34916,-0.02 2.68184,0.24788 4.02333,0.36789 1.76231,0.13159 3.53051,0.12891 5.29627,0.13867 2.69664,0.007 5.3933,0.004 8.08994,0.003 3.22555,-0.0415 6.44028,0.21695 9.63593,0.65509 3.03915,0.29127 6.01778,0.9138 8.97209,1.7017 2.19843,0.51643 4.1594,1.57956 5.97407,2.95312 1.40363,1.2875 2.79644,2.55362 4.31161,3.69515 1.71392,1.23301 3.26961,2.66573 4.71625,4.22832 1.28051,1.45999 2.59766,2.88534 3.85585,4.36681 1.13078,1.50685 2.16175,3.09809 3.19142,4.68355 0.97218,1.51494 2.05508,2.93458 2.84884,4.5659 0.71515,1.39853 0.88555,2.97229 1.25167,4.48522 0.62,1.87184 1.29155,3.7233 1.88083,5.60668 0.44329,1.57828 0.7014,3.19215 1.23285,4.74262 0.45068,1.14438 0.92923,2.27555 1.38729,3.41693 0.36012,1.20804 0.68317,2.41838 1.0991,3.60921 0.59794,1.22645 1.02507,2.49971 1.33278,3.8365 0.33581,1.49523 1.32828,2.63194 2.27836,3.73995 1.14372,1.16299 2.05666,2.53179 3.01814,3.85598 0.69897,1.08785 1.82253,1.40895 2.90704,1.88588 1.08653,0.58022 2.13472,1.21878 3.26759,1.69541 1.62778,0.62975 3.33101,0.98913 4.99764,1.48526 1.43482,0.4418 2.91044,0.63524 4.3975,0.72089 1.96269,0.0657 3.92696,0.0497 5.89037,0.0473 2.33911,0.0422 4.68495,-0.12328 7.01565,0.11332 2.01058,0.34996 4.04079,0.54478 6.05783,0.83897 1.711,0.25509 3.39803,0.65077 5.11311,0.8783 1.35774,0.15761 2.71746,0.12108 4.06005,0.4005 1.95063,0.75937 3.98087,0.98977 6.0403,1.13314 3.30137,0.16298 6.60725,0.17716 9.91159,0.18774 1.94387,0.003 3.88774,-0.002 5.8316,-0.006 1.41578,-0.003 2.83156,-0.003 4.24733,-0.003 1.72264,-2.1e-4 3.44528,-1.4e-4 5.16792,-1.2e-4 1.32628,0.0968 2.62809,-0.12239 3.93641,-0.30527 1.03232,-0.0521 2.03721,-0.26518 3.05587,-0.42475 1.60001,-0.28234 3.2159,-0.45064 4.82045,-0.69885 2.37617,-0.25571 4.72894,-0.58376 7.07517,-1.06605 1.95199,-0.45024 3.92207,-0.78952 5.91247,-0.97243 1.42399,-0.0976 2.83453,-0.33364 4.25671,-0.46358 1.36119,-0.38261 2.72081,-0.75465 4.11728,-0.96042 1.36911,-0.44823 2.75634,-0.80039 4.17468,-1.02007 1.26154,-0.15971 2.53328,-0.17573 3.80212,-0.18556 1.20343,-0.0286 2.41032,0.0621 3.60973,-0.0563 1.20293,-0.1827 2.40904,-0.31753 3.62248,-0.38661 1.2051,-0.0505 2.39363,-0.2948 3.59258,-0.42791 1.20323,-0.11077 2.41156,-0.12626 3.61852,-0.13681 1.19448,-0.006 2.38898,-0.003 3.58347,-0.002 1.00691,0.001 2.01381,0.002 3.02072,0.002 0,0 -2.3e-4,8.1194 -2.3e-4,8.1194 l 0,0 c -1.0071,-3.1e-4 -2.0142,-7.9e-4 -3.02131,-0.002 -1.19207,-10e-4 -2.38417,-0.004 -3.57624,0.002 -1.18183,0.0104 -2.36517,0.0246 -3.54312,0.13636 -1.21148,0.13786 -2.41339,0.38339 -3.63235,0.42824 -1.20474,0.0702 -2.40104,0.21355 -3.59633,0.38641 -1.22133,0.1086 -2.44745,0.0357 -3.67223,0.0566 -1.23251,0.01 -2.46835,0.0232 -3.69322,0.18466 -1.41923,0.22883 -2.79614,0.62256 -4.17958,1.02015 -1.40895,0.21857 -2.77218,0.633 -4.15978,0.96093 -1.4216,0.1322 -2.832,0.36896 -4.25611,0.46358 -1.96389,0.18486 -3.90606,0.53089 -5.83293,0.97125 -2.35875,0.47814 -4.72509,0.8027 -7.11202,1.06671 -1.60382,0.24037 -3.21562,0.42072 -4.8145,0.69875 -1.02206,0.16834 -2.03544,0.35873 -3.07026,0.42497 -1.34155,0.18935 -2.67914,0.39757 -4.03846,0.30599 -1.72258,-3e-5 -3.44517,-1e-4 -5.16776,1.1e-4 -1.41536,3e-4 -2.83074,6.8e-4 -4.24611,0.003 -1.9451,0.004 -3.8902,0.009 -5.83531,0.006 -3.32032,-0.0106 -6.64215,-0.0254 -9.95954,-0.18791 -2.0894,-0.14259 -4.17546,-0.33374 -6.14812,-1.13467 -1.31709,-0.30591 -2.66091,-0.23233 -3.99694,-0.39942 -1.72039,-0.22144 -3.41166,-0.61459 -5.12572,-0.87847 -2.00528,-0.3022 -4.02805,-0.4765 -6.02649,-0.83858 -2.30339,-0.24915 -4.62591,-0.061 -6.93849,-0.11291 -1.97755,0.002 -3.95592,0.018 -5.93273,-0.0475 -1.54327,-0.0865 -3.07648,-0.27641 -4.56838,-0.72386 -1.68908,-0.50466 -3.4109,-0.87785 -5.06951,-1.4877 -1.15271,-0.45593 -2.23107,-1.04962 -3.29719,-1.69662 -1.15634,-0.54523 -2.4614,-0.81258 -3.29356,-1.91276 -0.96943,-1.29695 -1.81516,-2.70363 -2.95353,-3.85005 -1.01676,-1.14142 -2.10939,-2.30253 -2.66059,-3.78347 -0.3213,-1.31187 -0.51253,-2.66173 -1.2327,-3.82314 -0.46817,-1.16932 -0.88747,-2.35378 -1.09344,-3.6085 -0.42247,-1.1586 -0.91292,-2.28333 -1.38968,-3.41723 -0.64346,-1.54654 -0.94598,-3.10886 -1.28999,-4.75005 -0.54341,-1.89875 -1.21154,-3.75413 -1.88164,-5.60679 -0.098,-0.27667 -0.21873,-0.54553 -0.29384,-0.83003 -0.31693,-1.20046 -0.25131,-2.51482 -0.84625,-3.64108 -0.15884,-0.36816 -0.47612,-1.13127 -0.67516,-1.48495 -0.60599,-1.07686 -1.45857,-1.98537 -2.05862,-3.06824 -1.02103,-1.56815 -2.0501,-3.13058 -3.10238,-4.67496 -1.21415,-1.50899 -2.56774,-2.88822 -3.81855,-4.36354 -1.39817,-1.55741 -2.8859,-3.00888 -4.5741,-4.21763 -1.51973,-1.14332 -2.98477,-2.31779 -4.32393,-3.69597 -1.70874,-1.37017 -3.5587,-2.44339 -5.67634,-2.93921 -2.92307,-0.78945 -5.86984,-1.41727 -8.88013,-1.69986 -3.16223,-0.43744 -6.34308,-0.69744 -9.53557,-0.65441 -2.69809,10e-4 -5.39619,0.004 -8.09427,-0.003 -1.78584,-0.01 -3.57401,-0.008 -5.35645,-0.13895 -1.32082,-0.11455 -2.63183,-0.38024 -3.95912,-0.36761 -1.52156,0 -3.04313,0 -4.56469,0 0,0 0,-8.1194 0,-8.1194 z"
       id="path4101"
       style="color:#000000;fill:#f2bc2e;fill-opacity:1;fill-rule:nonzero;stroke:none;stroke-width:1.94799999999999995;stroke-linecap:butt;stroke-linejoin:miter;stroke-miterlimit:4;stroke-opacity:1;stroke-dasharray:none;stroke-dashoffset:0;marker:none;visibility:visible;display:inline;overflow:visible;enable-background:accumulate" />
    <path
       sodipodi:nodetypes="ccccccccccccccccc"
       inkscape:connector-curvature="0"
       id="path3321-3"
       d="m 454.9233,151.45965 c 0.29363,2.89112 0.71982,5.89589 2.15963,8.46112 3.60424,4.63844 7.61004,7.59606 12.59532,10.24454 1.78234,1.57699 2.7309,1.8684 5.6728,3.87512 -2.96279,1.58614 -6.47893,2.33659 -8.81198,4.24325 -2.747,1.08348 -4.49489,2.5892 -6.96288,4.21216 -2.2795,2.14117 -4.87662,4.24019 -5.87838,7.32476 -0.17303,0.50452 -1.17422,3.64486 -1.12038,2.24295 0.067,-3.02226 0.1339,-6.04452 0.20085,-9.06677 0.9432,-2.59773 2.05889,-5.25411 4.21092,-7.09749 1.8122,-2.05366 4.05097,-3.65755 6.50724,-4.85222 -3.11193,-7.33179 4.83507,4.80333 4.7911,5.7364 -0.30196,-1.63048 -3.04553,-1.14834 -4.3431,-1.86923 -2.84012,-0.99363 -5.75384,-2.08482 -7.90272,-4.28717 -2.40062,-2.04481 -3.11212,-5.27826 -3.62172,-8.24311 -0.20713,-0.97032 -0.1804,-1.93734 0.19057,-2.85907 0.77091,-2.68842 1.54182,-5.37683 2.31273,-8.06524 z"
       style="color:#000000;fill:#f2bc2e;fill-opacity:1;fill-rule:nonzero;stroke:none;stroke-width:1.94799995000000004;stroke-linecap:butt;stroke-linejoin:miter;stroke-miterlimit:4;stroke-opacity:1;stroke-dasharray:none;stroke-dashoffset:0;marker:none;visibility:visible;display:inline;overflow:visible;enable-background:accumulate" />
    <path
       inkscape:connector-curvature="0"
       d="m 243.12409,272.98897 c 1.57466,0.0899 3.1214,-0.0879 4.67408,-0.32467 1.19215,-0.12685 2.35609,-0.42028 3.54168,-0.58514 1.10309,-0.12293 2.21345,-0.28456 3.25663,-0.67329 1.4585,-0.71588 2.91056,-1.44994 4.36469,-2.17724 1.52777,-0.81474 3.11823,-1.56795 4.49316,-2.63207 0.63395,-0.84614 0.97627,-1.8681 1.38469,-2.83396 0.45511,-0.87418 1.02354,-1.6649 1.44926,-2.55613 0.58126,-1.03535 1.26541,-2.01222 1.9507,-2.98187 0.92854,-1.27426 2.10191,-2.33722 3.00308,-3.63012 0.64926,-0.94642 0.85761,-2.05537 1.10262,-3.15144 0.1566,-1.00317 0.21429,-2.01383 0.34575,-3.02125 0.0458,-1.30886 0.59034,-2.4859 1.05553,-3.68152 0.29944,-0.82749 0.49641,-1.68777 0.70191,-2.54232 0,0 0.75913,5.69087 0.75913,5.69087 l 0,0 c -0.22289,0.86101 -0.43293,1.72788 -0.77553,2.55166 -0.46768,1.18192 -0.84273,2.38274 -0.91482,3.66284 -0.12567,1.01128 -0.15197,2.03802 -0.40577,3.02965 -0.28229,1.13142 -0.60236,2.23613 -1.33077,3.17752 -0.95553,1.24436 -2.09118,2.33869 -2.9902,3.6289 -0.66461,0.96283 -1.34135,1.92597 -1.86819,2.97331 -0.45319,0.86135 -1.04341,1.64498 -1.4096,2.55159 -0.42418,1.02799 -0.84984,2.09969 -1.6914,2.86185 -1.43909,1.02674 -3.02657,1.8283 -4.594,2.63763 -1.47483,0.73368 -2.93395,1.50596 -4.43592,2.18009 -1.09069,0.36409 -2.22739,0.55565 -3.36983,0.67601 -1.18249,0.17215 -2.34656,0.45592 -3.53637,0.58506 -1.58104,0.2386 -3.15794,0.41238 -4.76051,0.32532 0,0 0,-5.74128 0,-5.74128 z"
       id="path4240"
       style="color:#000000;fill:#f2bc2e;fill-opacity:1;fill-rule:nonzero;stroke:none;stroke-width:1.94799995;marker:none;visibility:visible;display:inline;overflow:visible;enable-background:accumulate" />
  </g>
  <g
     id="g4337">
    <path
       inkscape:connector-curvature="0"
       d="m 241.5019,126.77612 c 1.35791,0.0743 2.69783,-0.0684 4.04386,-0.22955 1.29348,-0.1661 2.59485,-0.22724 3.89654,-0.26114 1.21021,-0.0237 2.42071,-0.0207 3.63109,-0.02 1.25754,0.001 2.5151,0.002 3.77264,0.003 1.51035,4.4e-4 3.02071,4.7e-4 4.53107,5e-4 1.28534,-0.022 2.55995,-0.0245 3.83587,0.14481 1.26648,0.12615 2.46974,0.57568 3.68822,0.92878 1.47187,0.37656 2.79626,1.09772 4.0905,1.90255 1.47203,0.93768 2.68341,2.22054 3.88928,3.49222 1.14847,1.28717 2.29138,2.57949 3.45481,3.85188 1.00753,1.03482 1.94123,2.1393 2.8069,3.30612 0.7643,1.06055 1.50056,2.12982 2.12826,3.28596 0.76144,1.32363 1.06232,2.84734 1.60129,4.27099 0.64619,1.35734 0.98904,2.8299 1.38153,4.28102 0.44011,1.34606 0.65221,2.74134 0.82951,4.14562 0.26019,1.56871 0.82321,3.0534 1.39339,4.52065 0.67279,1.59162 1.45383,3.12594 2.32186,4.6085 0.87233,1.30818 1.63296,2.66952 2.2219,4.14104 0.51079,1.28789 0.73021,2.67128 1.07309,4.01316 0.566,1.61805 1.24209,3.19002 1.88833,4.77388 0.6331,1.5315 1.0639,3.13529 1.76191,4.63753 0.65741,1.43188 1.56523,2.70743 2.38228,4.03923 0.84262,1.40746 1.89654,2.65213 2.9668,3.87007 1.41426,1.56198 2.87455,3.07725 4.3271,4.5998 1.23697,1.34218 2.51365,2.63441 3.86512,3.84832 0.9954,0.94689 1.87372,2.01836 2.79295,3.04448 1.18314,1.20618 2.57417,2.14326 3.92035,3.13096 1.49106,1.06656 3.12002,1.88847 4.74682,2.69638 1.68648,0.82433 3.4772,1.35563 5.25329,1.91427 1.72764,0.46839 3.43764,1.00061 5.14065,1.56254 2.51018,0.63356 4.97778,1.3813 7.41203,2.28417 1.76874,0.66573 3.51053,1.39647 5.35734,1.78496 1.60399,0.4203 3.26068,0.48396 4.88063,0.78786 1.82317,0.38518 3.64124,0.80718 5.48172,1.09092 2.97889,0.66176 5.9943,0.96359 9.02915,1.15949 3.12868,0.17161 6.26157,0.22558 9.39396,0.24671 2.06479,0.007 4.12962,5.2e-4 6.19444,-0.003 2.14085,-0.20851 4.18415,0.39244 6.25615,0.83795 2.81843,0.51159 5.68075,0.58464 8.53295,0.64999 2.79454,0.0455 5.58952,0.0426 8.38432,0.039 1.5073,-0.003 3.0146,-0.006 4.5219,-0.008 1.28727,-0.001 2.57453,-0.001 3.86179,-0.001 1.39459,0 2.78918,3e-5 4.18377,5e-5 1.24708,0.0809 2.46722,-0.0528 3.6985,-0.22941 1.40001,-0.19142 2.81394,-0.22971 4.22386,-0.26126 1.34149,-0.0238 2.68323,-0.0206 4.02486,-0.0201 1.48368,10e-4 2.96737,0.002 4.45105,0.003 1.28212,4.2e-4 2.56423,4.6e-4 3.84636,4.9e-4 1.10294,1e-5 2.20589,-1e-5 3.30885,-1e-5 0.97633,-1e-5 1.95267,-1e-5 2.929,-1e-5 1.14333,0 2.28665,0 3.42997,0 0.11911,0 1.04246,0 1.17645,0 0,0 0,8.1194 0,8.1194 l 0,0 c -0.39215,0 -0.78429,0 -1.17645,0 -1.14332,0 -2.28664,0 -3.42997,0 -0.97633,0 -1.95266,0 -2.929,1e-5 -1.10296,1e-5 -2.20592,2e-5 -3.30886,1e-5 -1.28222,-2e-5 -2.56443,-6e-5 -3.84664,-4.9e-4 -1.4837,-5.9e-4 -2.9674,-0.002 -4.45108,-0.003 -1.336,-5.8e-4 -2.67211,-0.004 -4.00796,0.02 -1.38038,0.0312 -2.76484,0.0684 -4.13505,0.26052 -1.26555,0.18267 -2.52318,0.30411 -3.8039,0.23016 -1.39458,-1e-5 -2.78916,-5e-5 -4.18374,-5e-5 -1.287,4e-5 -2.574,1e-5 -3.86102,0.001 -1.50725,0.002 -3.01449,0.005 -4.52174,0.008 -2.80073,0.004 -5.60164,0.006 -8.40212,-0.039 -2.89823,-0.0661 -5.8055,-0.14355 -8.6709,-0.65159 -2.02365,-0.42655 -4.00845,-1.05231 -6.10028,-0.83633 -2.06683,0.003 -4.13366,0.01 -6.20048,0.003 -3.14651,-0.0212 -6.29348,-0.0754 -9.43631,-0.24686 -3.05554,-0.19559 -6.09499,-0.48499 -9.09288,-1.16018 -1.85195,-0.27656 -3.68049,-0.69971 -5.51292,-1.09145 -1.61734,-0.32913 -3.28322,-0.35532 -4.88757,-0.788 -1.88883,-0.37758 -3.67226,-1.09175 -5.47253,-1.78819 -2.42246,-0.91074 -4.87554,-1.67446 -7.38335,-2.2832 -1.70094,-0.56167 -3.40335,-1.11068 -5.13259,-1.56229 -1.80626,-0.58129 -3.6398,-1.09055 -5.36441,-1.91854 -1.66839,-0.81199 -3.33194,-1.65142 -4.87773,-2.70357 -1.38913,-1.00802 -2.79917,-1.98476 -4.07945,-3.14284 -0.91039,-1.00599 -1.78888,-2.04282 -2.70991,-3.03784 -1.36812,-1.21986 -2.69476,-2.47809 -3.9257,-3.85307 -1.45803,-1.52714 -2.92072,-3.04973 -4.35442,-4.60211 -1.10482,-1.22845 -2.20586,-2.4756 -3.10346,-3.88313 -0.82855,-1.34255 -1.73829,-2.6329 -2.45168,-4.04686 -0.79005,-1.47698 -1.26197,-3.06159 -1.81808,-4.64418 -0.66989,-1.59292 -1.29515,-3.19283 -1.96847,-4.78414 -0.45061,-1.30425 -0.60713,-2.68002 -1.0009,-4.00388 -0.58567,-1.44604 -1.14965,-2.88611 -2.10265,-4.1273 -0.89336,-1.49964 -1.72069,-3.02789 -2.4514,-4.62351 -0.57802,-1.49456 -1.18998,-2.97602 -1.56978,-4.54485 -0.23997,-1.37788 -0.26254,-2.79871 -0.72824,-4.1312 -0.42157,-1.4282 -0.66552,-2.91702 -1.289,-4.2691 -0.62221,-1.3912 -0.88251,-2.89914 -1.53897,-4.26362 -0.5576,-1.17738 -1.246,-2.24078 -2.01808,-3.27425 -0.78544,-1.19588 -1.72306,-2.27525 -2.70424,-3.29672 -1.16698,-1.26772 -2.321,-2.54834 -3.45198,-3.85163 -1.13589,-1.26192 -2.3114,-2.50859 -3.6916,-3.47825 -1.22329,-0.79505 -2.4673,-1.52702 -3.87482,-1.89337 -1.18747,-0.33374 -2.35102,-0.79753 -3.5818,-0.92659 -1.24286,-0.17067 -2.48399,-0.16615 -3.73696,-0.14415 -1.51045,-3e-5 -3.02091,-6e-5 -4.53136,-4.9e-4 -1.25757,-5e-4 -2.51514,-10e-4 -3.77273,-0.003 -1.2038,-6.2e-4 -2.40775,-0.004 -3.6114,0.02 -1.27889,0.0337 -2.55729,0.0957 -3.82794,0.26064 -1.37488,0.16474 -2.74524,0.30056 -4.13176,0.23007 0,0 0,-8.1194 0,-8.1194 z"
       id="path4103"
       style="color:#000000;fill:#f8db30;fill-opacity:1;fill-rule:nonzero;stroke:none;stroke-width:1.95221602999999999;stroke-linecap:butt;stroke-linejoin:miter;stroke-miterlimit:4;stroke-opacity:1;stroke-dasharray:none;stroke-dashoffset:0;marker:none;visibility:visible;display:inline;overflow:visible;enable-background:accumulate" />
    <path
       sodipodi:nodetypes="ccccccccccccccccc"
       inkscape:connector-curvature="0"
       id="path3321-6"
       d="m 445.78897,201.69846 c 0.29363,2.89112 0.71982,5.89589 2.15963,8.46112 3.60424,4.63844 7.61004,7.59606 12.59532,10.24454 1.78234,1.57699 2.7309,1.8684 5.6728,3.87512 -2.96279,1.58614 -6.47893,2.33659 -8.81198,4.24325 -2.747,1.08348 -4.49489,2.5892 -6.96288,4.21216 -2.2795,2.14117 -4.87662,4.24019 -5.87838,7.32476 -0.17303,0.50452 -1.17422,3.64486 -1.12038,2.24295 0.067,-3.02226 0.1339,-6.04452 0.20085,-9.06677 0.9432,-2.59773 2.05889,-5.25411 4.21092,-7.09749 1.8122,-2.05366 4.05097,-3.65755 6.50724,-4.85222 -3.11193,-7.33179 4.83507,4.80333 4.7911,5.7364 -0.30196,-1.63048 -3.04553,-1.14834 -4.3431,-1.86923 -2.84012,-0.99363 -5.75384,-2.08482 -7.90272,-4.28717 -2.40062,-2.04481 -3.11212,-5.27826 -3.62172,-8.24311 -0.20713,-0.97032 -0.1804,-1.93734 0.19057,-2.85907 0.77091,-2.68842 1.54182,-5.37683 2.31273,-8.06524 z"
       style="color:#000000;fill:#f8db30;fill-opacity:1;fill-rule:nonzero;stroke:none;stroke-width:1.95221602999999999;stroke-linecap:butt;stroke-linejoin:miter;stroke-miterlimit:4;stroke-opacity:1;stroke-dasharray:none;stroke-dashoffset:0;marker:none;visibility:visible;display:inline;overflow:visible;enable-background:accumulate" />
    <path
       inkscape:connector-curvature="0"
       d="m 244.26214,280.96284 c 1.31123,0 2.62246,0 3.9337,0 1.37318,0 2.74636,0 4.11954,0 1.50104,0 3.00208,0 4.50312,0 2.05789,0.0283 3.90893,-0.72688 5.65466,-1.65215 1.33881,-0.64107 2.38146,-1.64176 3.50657,-2.53945 0.95706,-0.80093 2.03288,-1.51422 2.77615,-2.49698 0.60289,-1.0806 1.01208,-2.24024 1.66874,-3.29938 0.73453,-0.89537 1.20623,-1.86171 1.43776,-2.95617 0.0456,-0.14658 0.0968,-0.29179 0.13671,-0.43974 0.14039,-0.51942 0.0576,-0.41206 0.26599,-0.92191 0.18982,-0.46433 0.4761,-0.88596 0.69324,-1.33973 0.36396,-0.83763 0.71089,-1.67917 1.03276,-2.53127 0.20262,-0.75182 0.37001,-1.50889 0.85,-2.15702 0.37077,-0.40747 0.17797,-0.20641 0.57906,-0.60264 0,0 0.53609,5.72006 0.53609,5.72006 l 0,0 c -0.33194,0.38684 -0.18182,0.18906 -0.45327,0.59148 -0.32365,0.69412 -0.47598,1.4359 -0.74926,2.14638 -0.34524,0.85169 -0.67489,1.70881 -1.08497,2.53698 -0.44716,0.86244 -0.77463,1.74758 -0.97652,2.68771 -0.3389,1.08142 -0.93534,2.02994 -1.5944,2.97366 -0.59418,1.10161 -1.01151,2.29238 -1.77534,3.30917 -0.86637,0.92605 -1.89606,1.70085 -2.89223,2.50571 -1.13781,0.93804 -2.26996,1.89046 -3.63723,2.54688 -1.85425,0.93897 -3.81744,1.68755 -5.97451,1.65969 -1.50104,0 -3.00208,0 -4.50312,0 -1.37318,0 -2.74636,0 -4.11954,0 -1.31124,0 -2.62247,0 -3.9337,0 0,0 0,-5.74128 0,-5.74128 z"
       id="path4242"
       style="color:#000000;fill:#f8db30;fill-opacity:1;fill-rule:nonzero;stroke:none;stroke-width:1.95221603;marker:none;visibility:visible;display:inline;overflow:visible;enable-background:accumulate" />
  </g>
  <g
     id="g4342">
    <path
       inkscape:connector-curvature="0"
       d="m 447.10233,278.62261 c -1.57171,-0.12198 -3.08179,0.1287 -4.61274,0.43638 -1.46541,0.23093 -2.92747,0.46985 -4.39061,0.7151 -1.23937,0.3116 -2.49525,0.54392 -3.74308,0.81853 -1.2754,0.28753 -2.58462,0.30153 -3.85337,0.6123 -1.67799,0.45368 -3.41603,0.61126 -5.14759,0.71617 -1.80259,0.0842 -3.60775,0.0854 -5.41196,0.0876 -1.62784,-6.5e-4 -3.25566,-0.004 -4.88348,-0.006 -1.47471,0.053 -2.94104,-0.11809 -4.39338,-0.35075 -1.93188,-0.2707 -3.71638,-1.0844 -5.54545,-1.70766 -1.72076,-0.60524 -3.45924,-1.1396 -5.10793,-1.91942 -1.37409,-0.75598 -2.81194,-1.36966 -4.24823,-1.99876 -1.40634,-0.66907 -2.86546,-1.21734 -4.31253,-1.79348 -1.7896,-0.85548 -3.53235,-1.78786 -5.16961,-2.89711 -1.79508,-1.13589 -3.36341,-2.55967 -5.06126,-3.82071 -1.86708,-1.37826 -3.75085,-2.73077 -5.76536,-3.89776 -1.68147,-0.99524 -3.37364,-1.9516 -5.13812,-2.79952 -2.06606,-1.03172 -4.07446,-2.16573 -6.13174,-3.21312 -2.64265,-1.3664 -5.59084,-1.8898 -8.45536,-2.61648 -2.84677,-0.63727 -5.6018,-1.5628 -8.20795,-2.84629 -1.97203,-1.08533 -3.97447,-2.11162 -5.91508,-3.25045 -1.53484,-0.83905 -3.12715,-1.54064 -4.60418,-2.47976 -1.4323,-0.96961 -2.77321,-2.05676 -4.16133,-3.08378 -1.3996,-1.06622 -2.79919,-2.13248 -4.21496,-3.1782 -1.22765,-0.99952 -2.47476,-1.93489 -3.84491,-2.73932 -1.30593,-0.78162 -2.54944,-1.66208 -3.76633,-2.56923 -1.52835,-1.26557 -3.16025,-2.40065 -4.81952,-3.49498 -1.74356,-0.95098 -2.94303,-2.46989 -4.24658,-3.89362 -1.06262,-1.24907 -1.94735,-2.63011 -2.86066,-3.98406 -0.80735,-1.11573 -1.46245,-2.32258 -2.21029,-3.47445 -0.84089,-1.25714 -1.9376,-2.31693 -2.96104,-3.42839 -1.08445,-1.25643 -2.20694,-2.47912 -3.36157,-3.67428 -1.14255,-1.0853 -2.11078,-2.3162 -3.05799,-3.56181 -0.98511,-1.13738 -1.75032,-2.41972 -2.54081,-3.68613 -0.92968,-1.27204 -1.98818,-2.4433 -2.93479,-3.70338 -1.15296,-1.36704 -1.85093,-3.00346 -2.69817,-4.55045 -0.90558,-1.44969 -1.51921,-3.0348 -2.21805,-4.58114 -0.51397,-1.17715 -0.94622,-2.38869 -1.24773,-3.63406 -0.17471,-1.15029 -0.47389,-2.27129 -0.83201,-3.37862 -0.41686,-1.16283 -1.12413,-2.18831 -1.6691,-3.29107 -0.51088,-1.2068 -1.08649,-2.38215 -1.75987,-3.51058 -0.69585,-1.17184 -1.28101,-2.39874 -1.98373,-3.56671 -0.8368,-1.19692 -1.48739,-2.49177 -2.12903,-3.7934 -0.79025,-1.36611 -1.55767,-2.73774 -2.26361,-4.14733 -0.74183,-1.61092 -1.67088,-3.09603 -2.80984,-4.46395 -1.31791,-1.55681 -2.77331,-2.99547 -4.21964,-4.4374 -1.3411,-1.41305 -2.73765,-2.72669 -4.42604,-3.73356 -1.53454,-0.83258 -3.03795,-1.70584 -4.64842,-2.3933 -1.61092,-0.54068 -3.21085,-1.11107 -4.81646,-1.66903 -1.23753,-0.43486 -2.54901,-0.50533 -3.85005,-0.55071 -1.50056,-0.0326 -3.0017,-0.0218 -4.50251,-0.0174 -0.92371,0.003 -0.46795,9.5e-4 -1.3673,0.004 0,0 -0.002,-7.72288 -0.002,-7.72288 l 0,0 c 0.89915,-0.002 0.44346,-9.5e-4 1.36709,-0.004 1.51091,-0.005 3.02214,-0.015 4.53281,0.0175 1.37898,0.047 2.77043,0.12039 4.08936,0.55506 1.62647,0.54926 3.22775,1.16477 4.86908,1.67094 1.65293,0.67462 3.18487,1.54926 4.74812,2.39783 1.78199,0.97943 3.26708,2.2667 4.63512,3.7471 1.46212,1.45005 2.93492,2.89457 4.28861,4.44305 1.18862,1.39194 2.2591,2.78848 2.98004,4.48045 0.75603,1.38322 1.37302,2.83881 2.27377,4.14843 0.66488,1.2753 1.19301,2.62498 2.06873,3.78707 0.71514,1.16043 1.37085,2.34427 1.97175,3.56551 0.73949,1.11446 1.35733,2.29417 1.87034,3.52237 0.46196,1.15916 1.20075,2.16294 1.72298,3.29738 0.44203,1.08679 0.78385,2.23338 0.94269,3.39271 0.21934,1.24583 0.61371,2.43604 1.08125,3.61344 0.68822,1.53874 1.27676,3.12135 2.15276,4.574 0.85564,1.52106 1.50519,3.15915 2.59478,4.54023 0.94235,1.28035 1.94631,2.5045 2.98986,3.70866 0.80971,1.23719 1.47486,2.56868 2.47465,3.67985 0.94202,1.22138 1.82469,2.49356 2.96558,3.55393 1.16713,1.19344 2.31607,2.40362 3.39225,3.67678 1.01267,1.1546 2.16163,2.1959 3.06829,3.43804 0.79676,1.12981 1.40125,2.3623 2.22231,3.47561 0.86048,1.35401 1.79281,2.66822 2.73031,3.97233 1.28243,1.37316 2.36415,2.94038 4.05409,3.88018 1.67407,1.09718 3.34706,2.20671 4.87266,3.49823 1.18108,0.90956 2.40651,1.76868 3.67122,2.56366 1.39648,0.81306 2.72,1.67579 3.93064,2.74429 1.41494,1.04662 2.82584,2.0986 4.21453,3.17817 1.38034,1.01707 2.71902,2.08387 4.11498,3.08099 1.44929,0.96987 3.01717,1.68138 4.56781,2.47774 1.92427,1.13754 3.90705,2.16111 5.86129,3.24778 2.5384,1.29894 5.23914,2.21697 8.03468,2.84011 2.91617,0.75044 5.92421,1.26031 8.63132,2.62279 2.05844,1.03564 4.06126,2.16771 6.11464,3.21233 1.78141,0.85269 3.51004,1.77426 5.19323,2.80217 2.05946,1.14426 3.9683,2.50842 5.856,3.90293 1.71911,1.22837 3.25416,2.68005 5.04164,3.8195 1.57611,1.11232 3.26563,2.01815 4.9927,2.88839 1.4493,0.59462 2.93215,1.11289 4.34357,1.79474 1.42802,0.65995 2.91056,1.20409 4.27266,1.99982 1.60389,0.80445 3.31382,1.31883 5.00549,1.91545 1.7925,0.60036 3.5299,1.4175 5.41333,1.70443 1.40781,0.2361 2.83146,0.40115 4.26251,0.34968 1.6272,0.002 3.2544,0.005 4.8816,0.006 1.78799,-0.002 3.57695,-0.003 5.36329,-0.0875 1.6874,-0.10472 3.37755,-0.26776 5.01169,-0.7142 1.27671,-0.28375 2.58471,-0.32626 3.86206,-0.6125 1.26009,-0.28147 2.52963,-0.51438 3.78446,-0.81932 1.45464,-0.24683 2.91097,-0.47354 4.36632,-0.71466 1.58207,-0.31383 3.15102,-0.55277 4.77254,-0.43796 0,0 0,7.72289 0,7.72289 z"
       id="path4114"
       style="color:#000000;fill:#fae330;fill-opacity:1;fill-rule:nonzero;stroke:none;stroke-width:1.92602932000000004;stroke-linecap:butt;stroke-linejoin:miter;stroke-miterlimit:4;stroke-opacity:1;stroke-dasharray:none;stroke-dashoffset:0;marker:none;visibility:visible;display:inline;overflow:visible;enable-background:accumulate" />
    <path
       sodipodi:nodetypes="ccccccccccccccccc"
       inkscape:connector-curvature="0"
       id="path3321-7"
       d="m 438.17703,253.96712 c 0.29363,2.89112 0.71982,5.89589 2.15963,8.46112 3.60424,4.63844 7.61004,7.59606 12.59532,10.24454 1.78234,1.57699 2.7309,1.8684 5.6728,3.87512 -2.96279,1.58614 -6.47893,2.33659 -8.81198,4.24325 -2.747,1.08348 -4.49489,2.5892 -6.96288,4.21216 -2.2795,2.14117 -4.87662,4.24019 -5.87838,7.32476 -0.17303,0.50452 -1.17422,3.64486 -1.12038,2.24295 0.067,-3.02226 0.1339,-6.04452 0.20085,-9.06677 0.9432,-2.59773 2.05889,-5.25411 4.21092,-7.09749 1.8122,-2.05366 4.05097,-3.65755 6.50724,-4.85222 -3.11193,-7.33179 4.83507,4.80333 4.7911,5.7364 -0.30196,-1.63048 -3.04553,-1.14834 -4.3431,-1.86923 -2.84012,-0.99363 -5.75384,-2.08482 -7.90272,-4.28717 -2.40062,-2.04481 -3.11212,-5.27826 -3.62172,-8.24311 -0.20713,-0.97032 -0.1804,-1.93734 0.19057,-2.85907 0.77091,-2.68842 1.54182,-5.37683 2.31273,-8.06524 z"
       style="color:#000000;fill:#fae330;fill-opacity:1;fill-rule:nonzero;stroke:none;stroke-width:1.92602932000000004;stroke-linecap:butt;stroke-linejoin:miter;stroke-miterlimit:4;stroke-opacity:1;stroke-dasharray:none;stroke-dashoffset:0;marker:none;visibility:visible;display:inline;overflow:visible;enable-background:accumulate" />
    <path
       inkscape:connector-curvature="0"
       d="m 244.6639,291.36891 c 1.29459,0 2.58919,0 3.88378,0 1.39982,0.0117 2.80051,-0.0344 4.19829,0.043 1.37911,0.20158 2.74663,0.44258 4.13731,0.56942 1.25376,0.0997 2.51351,0.10328 3.77102,0.10914 1.29633,0.001 2.5888,0.0546 3.8706,-0.1467 1.10742,-0.13848 2.01977,-0.5797 2.80827,-1.28726 0.59774,-0.92734 1.29679,-1.79279 2.03877,-2.62574 0.70519,-0.74851 1.49686,-1.40962 1.94937,-2.32109 0.0657,-0.12063 0.14154,-0.23704 0.19709,-0.36191 0.43009,-0.96679 -0.17124,0.18512 0.32831,-0.81857 0.21892,-0.43983 0.50498,-0.83801 0.7256,-1.2778 0.51273,-0.96876 1.13788,-1.88029 1.76726,-2.78732 0.33572,-0.55532 0.55152,-1.15583 0.86441,-1.72381 0,0 0.70063,5.70509 0.70063,5.70509 l 0,0 c -0.28916,0.58662 -0.5423,1.19232 -0.93402,1.73066 -0.60646,0.90717 -1.21546,1.8135 -1.70407,2.78113 -0.46037,0.80772 -0.83274,1.64551 -1.27414,2.46061 -0.5799,0.8573 -1.37189,1.55042 -2.06157,2.33129 -0.73623,0.86378 -1.36353,1.80162 -2.13999,2.63333 -0.91847,0.70543 -1.97008,1.14745 -3.16439,1.30192 -1.31842,0.19078 -2.64377,0.15525 -3.9753,0.14746 -1.27683,-0.006 -2.55582,-0.0102 -3.82899,-0.10942 -1.38359,-0.12339 -2.74639,-0.34813 -4.11468,-0.56925 -1.38468,-0.0804 -2.77291,-0.0288 -4.15978,-0.0429 -1.29459,0 -2.58919,0 -3.88378,0 0,0 0,-5.74129 0,-5.74129 z"
       id="path4244"
       style="color:#000000;fill:#fae330;fill-opacity:1;fill-rule:nonzero;stroke:none;stroke-width:1.92602932;marker:none;visibility:visible;display:inline;overflow:visible;enable-background:accumulate" />
  </g>
  <g
     id="g4347">
    <path
       sodipodi:nodetypes="ccccccccccccccc"
       inkscape:connector-curvature="0"
       id="path3315"
       d="m 232.66282,201.30251 c 13.03356,0.73863 26.14064,0.47739 39.14697,1.08262 9.44453,2.8913 20.1496,8.15263 24.79178,17.18593 2.3388,10.02794 1.06697,20.99218 -4.3796,29.85874 -3.83078,8.23607 -8.63873,16.57631 -8.58368,25.94689 0.32837,-4.14263 -1.30995,-13.25688 2.94767,-5.41188 5.95053,3.43856 11.74068,6.68305 18.51525,7.49859 7.18959,0.99233 14.26094,5.94171 8.9829,11.64312 -8.66589,0.87385 -16.92324,-2.33403 -24.84593,-5.5382 -8.51373,-2.8662 -8.87525,-12.82659 -7.30076,-20.18644 0.60779,-14.20157 11.65057,-25.12572 13.60234,-38.91729 -0.2415,3.22805 0.62784,13.7077 -0.83524,4.84226 -4.88195,-7.94222 -14.65128,-12.74001 -23.43927,-15.59409 -12.40679,-0.37296 -24.83352,-0.1207 -37.22539,-0.94057 -3.60625,-2.37979 -0.2117,-7.95472 -1.37704,-11.46968 z"
       style="color:#000000;fill:#eca14f;fill-opacity:1;fill-rule:nonzero;stroke:none;stroke-width:1.94380164000000000;stroke-linecap:butt;stroke-linejoin:miter;stroke-miterlimit:4;stroke-opacity:1;stroke-dasharray:none;stroke-dashoffset:0;marker:none;visibility:visible;display:inline;overflow:visible;enable-background:accumulate" />
    <path
       sodipodi:nodetypes="cccccccccccccccc"
       inkscape:connector-curvature="0"
       id="path3317"
       d="m 236.79709,316.84587 c 13.06692,-0.3819 26.648,1.49507 39.15944,-3.19284 5.11555,0.24188 3.52797,-13.12273 3.78448,-4.99076 0.002,3.95856 0.002,4.59542 -0.009,0.48179 0.16544,-8.60183 -0.49959,-17.34288 0.38055,-25.85643 2.95,-7.23439 13.39816,-6.73144 19.6735,-6.55961 5.52921,1.87807 12.00922,0.52173 16.60017,0.68985 0.0282,3.30588 0.14621,8.04709 0.17441,11.35297 -10.20348,0.60579 -20.58431,-0.82604 -30.67731,0.7607 -5.08869,0.8229 -4.67344,11.81571 -4.38181,10.98194 0.0166,-2.81268 -0.005,-12.34021 -0.0476,-4.92574 -0.20021,8.61985 1.02478,17.50665 -0.71461,25.94963 -3.69222,5.54532 -11.28547,5.12782 -17.12944,6.42567 -8.48848,0.91166 -17.13128,0.0114 -25.57068,0.45016 -2.85423,-2.93833 -0.44715,-7.80602 -1.24177,-11.56733 z"
       style="color:#000000;fill:#eca14f;fill-opacity:1;fill-rule:nonzero;stroke:none;stroke-width:1.94380164000000000;stroke-linecap:butt;stroke-linejoin:miter;stroke-miterlimit:4;stroke-opacity:1;stroke-dasharray:none;stroke-dashoffset:0;marker:none;visibility:visible;display:inline;overflow:visible;enable-background:accumulate" />
    <path
       sodipodi:nodetypes="cccccccccccc"
       inkscape:connector-curvature="0"
       id="path3319"
       d="m 314.91874,277.32692 c 11.789,-1.02658 32.83394,-3.35981 34.30629,-17.91908 2.19064,-27.44522 -2.84171,-55.76794 5.50846,-82.53627 2.41109,-13.14421 11.6857,-23.73366 20.95119,-32.70456 9.89068,-7.50412 22.78824,-2.7253 34.1143,-5.26694 8.47128,-3.02423 21.27767,0.25409 14.12818,11.01335 -11.85223,-0.91659 -23.60696,2.1986 -35.43804,1.17684 -13.45374,0.50582 -20.02514,13.51313 -27.20445,22.89527 -6.78292,13.92178 -8.8893,29.9299 -9.87609,45.30204 -0.69952,17.68231 1.6254,35.61917 -1.17766,53.14256 -3.14509,12.06499 -26.21901,17.88276 -37.38548,16.44352 -4.45433,-1.33111 3.03552,-8.26952 2.0733,-11.54673 z"
       style="color:#000000;fill:#eca14f;fill-opacity:1;fill-rule:nonzero;stroke:none;stroke-width:1.94380164000000000;stroke-linecap:butt;stroke-linejoin:miter;stroke-miterlimit:4;stroke-opacity:1;stroke-dasharray:none;stroke-dashoffset:0;marker:none;visibility:visible;display:inline;overflow:visible;enable-background:accumulate" />
    <path
       sodipodi:nodetypes="ccccccccccccccccc"
       inkscape:connector-curvature="0"
       id="path3321"
       d="m 417.72217,122.54372 c 0.29363,2.89112 0.71982,5.89589 2.15963,8.46112 3.60424,4.63844 7.61004,7.59606 12.59532,10.24454 1.78234,1.57699 2.7309,1.8684 5.6728,3.87512 -2.96279,1.58614 -6.47893,2.33659 -8.81198,4.24325 -2.747,1.08348 -4.49489,2.5892 -6.96288,4.21216 -2.2795,2.14117 -4.87662,4.24019 -5.87838,7.32476 -0.17303,0.50452 -1.17422,3.64486 -1.12038,2.24295 0.067,-3.02226 0.1339,-6.04452 0.20085,-9.06677 0.9432,-2.59773 2.05889,-5.25411 4.21092,-7.09749 1.8122,-2.05366 4.05097,-3.65755 6.50724,-4.85222 -3.11193,-7.33179 4.83507,4.80333 4.7911,5.7364 -0.30196,-1.63048 -3.04553,-1.14834 -4.3431,-1.86923 -2.84012,-0.99363 -5.75384,-2.08482 -7.90272,-4.28717 -2.40062,-2.04481 -3.11212,-5.27826 -3.62172,-8.24311 -0.20713,-0.97032 -0.1804,-1.93734 0.19057,-2.85907 0.77091,-2.68842 1.54182,-5.37683 2.31273,-8.06524 z"
       style="color:#000000;fill:#eca14f;fill-opacity:1;fill-rule:nonzero;stroke:none;stroke-width:1.94380164000000000;stroke-linecap:butt;stroke-linejoin:miter;stroke-miterlimit:4;stroke-opacity:1;stroke-dasharray:none;stroke-dashoffset:0;marker:none;visibility:visible;display:inline;overflow:visible;enable-background:accumulate" />
  </g>
</svg>
