<?xml version="1.0" encoding="UTF-8" standalone="no"?>
<svg
   xmlns:dc="http://purl.org/dc/elements/1.1/"
   xmlns:cc="http://creativecommons.org/ns#"
   xmlns:rdf="http://www.w3.org/1999/02/22-rdf-syntax-ns#"
   xmlns:svg="http://www.w3.org/2000/svg"
   xmlns="http://www.w3.org/2000/svg"
   xmlns:sodipodi="http://sodipodi.sourceforge.net/DTD/sodipodi-0.dtd"
   xmlns:inkscape="http://www.inkscape.org/namespaces/inkscape"
   fill-opacity="1"
   color-rendering="auto"
   color-interpolation="auto"
   text-rendering="auto"
   stroke="black"
   stroke-linecap="square"
   width="690"
   stroke-miterlimit="10"
   shape-rendering="auto"
   stroke-opacity="1"
   fill="black"
   stroke-dasharray="none"
   font-weight="normal"
   stroke-width="1"
   viewBox="80 150 690 460"
   height="460"
   font-family="'Dialog'"
   font-style="normal"
   stroke-linejoin="miter"
   font-size="12px"
   stroke-dashoffset="0"
   image-rendering="auto"
   id="svg2"
   version="1.1"
   inkscape:version="0.48.5 r10040"
   sodipodi:docname="spech5_arrows.svg">
  <metadata
     id="metadata249">
    <rdf:RDF>
      <cc:Work
         rdf:about="">
        <dc:format>image/svg+xml</dc:format>
        <dc:type
           rdf:resource="http://purl.org/dc/dcmitype/StillImage" />
      </cc:Work>
    </rdf:RDF>
  </metadata>
  <sodipodi:namedview
     pagecolor="#ffffff"
     bordercolor="#666666"
     borderopacity="1"
     objecttolerance="10"
     gridtolerance="10"
     guidetolerance="10"
     inkscape:pageopacity="0"
     inkscape:pageshadow="2"
     inkscape:window-width="1634"
     inkscape:window-height="1122"
     id="namedview247"
     showgrid="false"
     inkscape:zoom="1.3732219"
     inkscape:cx="465.7253"
     inkscape:cy="215.09541"
     inkscape:window-x="636"
     inkscape:window-y="85"
     inkscape:window-maximized="0"
     inkscape:current-layer="svg2" />
  <!--Generated by the Batik Graphics2D SVG Generator-->
  <defs
     id="genericDefs" />
  <g
     id="g5">
    <defs
       id="defs1">
      <clipPath
         clipPathUnits="userSpaceOnUse"
         id="clipPath1">
        <path
           d="M0 0 L2147483647 0 L2147483647 2147483647 L0 2147483647 L0 0 Z"
           id="path9" />
      </clipPath>
      <clipPath
         clipPathUnits="userSpaceOnUse"
         id="clipPath2">
        <path
           d="M0 0 L0 420 L250 420 L250 0 Z"
           id="path12" />
      </clipPath>
      <clipPath
         clipPathUnits="userSpaceOnUse"
         id="clipPath3">
        <path
           d="M0 0 L0 370 L250 370 L250 0 Z"
           id="path15" />
      </clipPath>
      <clipPath
         clipPathUnits="userSpaceOnUse"
         id="clipPath4">
        <path
           d="M0 0 L0 330 L230 330 L230 0 Z"
           id="path18" />
      </clipPath>
      <clipPath
         clipPathUnits="userSpaceOnUse"
         id="clipPath5">
        <path
           d="M0 0 L0 240 L230 240 L230 0 Z"
           id="path21" />
      </clipPath>
      <clipPath
         clipPathUnits="userSpaceOnUse"
         id="clipPath6">
        <path
           d="M0 0 L0 30 L230 30 L230 0 Z"
           id="path24" />
      </clipPath>
      <clipPath
         clipPathUnits="userSpaceOnUse"
         id="clipPath7">
        <path
           d="M0 0 L0 80 L210 80 L210 0 Z"
           id="path27" />
      </clipPath>
      <clipPath
         clipPathUnits="userSpaceOnUse"
         id="clipPath8">
        <path
           d="M0 0 L0 160 L210 160 L210 0 Z"
           id="path30" />
      </clipPath>
      <clipPath
         clipPathUnits="userSpaceOnUse"
         id="clipPath9">
        <path
           d="M0 0 L0 40 L230 40 L230 0 Z"
           id="path33" />
      </clipPath>
      <clipPath
         clipPathUnits="userSpaceOnUse"
         id="clipPath10">
        <path
           d="M0 0 L0 30 L210 30 L210 0 Z"
           id="path36" />
      </clipPath>
      <clipPath
         clipPathUnits="userSpaceOnUse"
         id="clipPath11">
        <path
           d="M0 0 L0 40 L210 40 L210 0 Z"
           id="path39" />
      </clipPath>
      <clipPath
         clipPathUnits="userSpaceOnUse"
         id="clipPath12">
        <path
           d="M0 0 L0 110 L210 110 L210 0 Z"
           id="path42" />
      </clipPath>
      <clipPath
         clipPathUnits="userSpaceOnUse"
         id="clipPath13">
        <path
           d="M0 0 L0 30 L190 30 L190 0 Z"
           id="path45" />
      </clipPath>
      <clipPath
         clipPathUnits="userSpaceOnUse"
         id="clipPath14">
        <path
           d="M0 0 L0 80 L190 80 L190 0 Z"
           id="path48" />
      </clipPath>
      <clipPath
         clipPathUnits="userSpaceOnUse"
         id="clipPath15">
        <path
           d="M0 0 L0 40 L190 40 L190 0 Z"
           id="path51" />
      </clipPath>
    </defs>
    <g
       fill="rgb(204,204,238)"
       fill-opacity="0.4902"
       transform="translate(500,170)"
       stroke-opacity="0.4902"
       stroke="rgb(204,204,238)"
       id="g53">
      <rect
         x="0.5"
         width="248.5"
         height="418.5"
         y="0.5"
         clip-path="url(#clipPath2)"
         stroke="none"
         id="rect55" />
    </g>
    <g
       transform="translate(500,170)"
       id="g57">
      <rect
         fill="none"
         x="0.5"
         width="248.5"
         height="418.5"
         y="0.5"
         clip-path="url(#clipPath2)"
         id="rect59" />
      <text
         x="90"
         font-size="14px"
         y="18.1094"
         clip-path="url(#clipPath2)"
         font-family="sans-serif"
         stroke="none"
         xml:space="preserve"
         id="text61">Nexus file</text>
    </g>
    <g
       fill="rgb(204,204,238)"
       fill-opacity="0.4902"
       transform="translate(100,200)"
       stroke-opacity="0.4902"
       stroke="rgb(204,204,238)"
       id="g63">
      <rect
         x="0.5"
         width="248.5"
         height="368.5"
         y="0.5"
         clip-path="url(#clipPath3)"
         stroke="none"
         id="rect65" />
    </g>
    <g
       transform="translate(100,200)"
       id="g67">
      <rect
         fill="none"
         x="0.5"
         width="248.5"
         height="368.5"
         y="0.5"
         clip-path="url(#clipPath3)"
         id="rect69" />
      <text
         x="95"
         font-size="14px"
         y="18.1094"
         clip-path="url(#clipPath3)"
         font-family="sans-serif"
         stroke="none"
         xml:space="preserve"
         id="text71">Spec file</text>
    </g>
    <g
       fill="rgb(255,255,255)"
       fill-opacity="0.4902"
       transform="translate(510,200)"
       stroke-opacity="0.4902"
       stroke="rgb(255,255,255)"
       id="g73">
      <rect
         x="0.5"
         width="228.5"
         height="328.5"
         y="0.5"
         clip-path="url(#clipPath4)"
         stroke="none"
         id="rect75" />
    </g>
    <g
       transform="translate(510,200)"
       id="g77">
      <rect
         fill="none"
         x="0.5"
         width="228.5"
         height="328.5"
         y="0.5"
         clip-path="url(#clipPath4)"
         id="rect79" />
      <text
         x="103"
         font-size="14px"
         y="18.1094"
         clip-path="url(#clipPath4)"
         font-family="sans-serif"
         stroke="none"
         xml:space="preserve"
         id="text81">1.1</text>
      <path
         fill="none"
         d="M1 24.1094 L229 24.1094"
         clip-path="url(#clipPath4)"
         id="path83" />
      <text
         x="5"
         font-size="14px"
         y="39.2188"
         clip-path="url(#clipPath4)"
         font-family="sans-serif"
         stroke="none"
         xml:space="preserve"
         id="text85">+start_time</text>
      <text
         x="5"
         font-size="14px"
         y="55.3281"
         clip-path="url(#clipPath4)"
         font-family="sans-serif"
         stroke="none"
         xml:space="preserve"
         id="text87">+title</text>
    </g>
    <g
       fill="rgb(255,255,255)"
       fill-opacity="0.4902"
       transform="translate(110,270)"
       stroke-opacity="0.4902"
       stroke="rgb(255,255,255)"
       id="g89">
      <rect
         x="0.5"
         width="228.5"
         height="238.5"
         y="0.5"
         clip-path="url(#clipPath5)"
         stroke="none"
         id="rect91" />
    </g>
    <g
       transform="translate(110,270)"
       id="g93">
      <rect
         fill="none"
         x="0.5"
         width="228.5"
         height="238.5"
         y="0.5"
         clip-path="url(#clipPath5)"
         id="rect95" />
      <text
         x="91"
         font-size="14px"
         y="18.1094"
         clip-path="url(#clipPath5)"
         font-family="sans-serif"
         stroke="none"
         xml:space="preserve"
         id="text97">Scan 1</text>
    </g>
    <g
       fill="rgb(255,255,255)"
       fill-opacity="0.4902"
       transform="translate(110,230)"
       stroke-opacity="0.4902"
       stroke="rgb(255,255,255)"
       id="g99">
      <rect
         x="0.5"
         width="228.5"
         height="28.5"
         y="0.5"
         clip-path="url(#clipPath6)"
         stroke="none"
         id="rect101" />
    </g>
    <g
       transform="translate(110,230)"
       id="g103">
      <rect
         fill="none"
         x="0.5"
         width="228.5"
         height="28.5"
         y="0.5"
         clip-path="url(#clipPath6)"
         id="rect105" />
      <text
         x="89"
         font-size="14px"
         y="18.1094"
         clip-path="url(#clipPath6)"
         font-family="sans-serif"
         stroke="none"
         xml:space="preserve"
         id="text107">Header</text>
    </g>
    <g
       fill="rgb(204,204,238)"
       fill-opacity="0.4902"
       transform="translate(520,440)"
       stroke-opacity="0.4902"
       stroke="rgb(204,204,238)"
       id="g109">
      <rect
         x="0.5"
         width="208.5"
         height="78.5"
         y="0.5"
         clip-path="url(#clipPath7)"
         stroke="none"
         id="rect111" />
    </g>
    <g
       transform="translate(520,440)"
       id="g113">
      <rect
         fill="none"
         x="0.5"
         width="208.5"
         height="78.5"
         y="0.5"
         clip-path="url(#clipPath7)"
         id="rect115" />
      <text
         x="56"
         font-size="14px"
         y="18.1094"
         clip-path="url(#clipPath7)"
         font-family="sans-serif"
         stroke="none"
         xml:space="preserve"
         id="text117">measurement</text>
    </g>
    <g
       fill="rgb(204,204,238)"
       fill-opacity="0.4902"
       transform="translate(520,270)"
       stroke-opacity="0.4902"
       stroke="rgb(204,204,238)"
       id="g119">
      <rect
         x="0.5"
         width="208.5"
         height="158.5"
         y="0.5"
         clip-path="url(#clipPath8)"
         stroke="none"
         id="rect121" />
    </g>
    <g
       transform="translate(520,270)"
       id="g123">
      <rect
         fill="none"
         x="0.5"
         width="208.5"
         height="158.5"
         y="0.5"
         clip-path="url(#clipPath8)"
         id="rect125" />
      <text
         x="66"
         font-size="14px"
         y="18.1094"
         clip-path="url(#clipPath8)"
         font-family="sans-serif"
         stroke="none"
         xml:space="preserve"
         id="text127">instrument</text>
    </g>
    <g
       fill="rgb(255,255,255)"
       fill-opacity="0.4902"
       transform="translate(510,540)"
       stroke-opacity="0.4902"
       stroke="rgb(255,255,255)"
       id="g129">
      <rect
         x="0.5"
         width="228.5"
         height="38.5"
         y="0.5"
         clip-path="url(#clipPath9)"
         stroke="none"
         id="rect131" />
    </g>
    <g
       transform="translate(510,540)"
       id="g133">
      <rect
         fill="none"
         x="0.5"
         width="228.5"
         height="38.5"
         y="0.5"
         clip-path="url(#clipPath9)"
         id="rect135" />
      <text
         x="103"
         font-size="14px"
         y="18.1094"
         clip-path="url(#clipPath9)"
         font-family="sans-serif"
         stroke="none"
         xml:space="preserve"
         id="text137">2.1</text>
      <text
         x="108"
         font-size="14px"
         y="34.2188"
         clip-path="url(#clipPath9)"
         font-family="sans-serif"
         stroke="none"
         xml:space="preserve"
         id="text139">...</text>
    </g>
    <g
       fill="rgb(204,204,238)"
       fill-opacity="0.4902"
       transform="translate(120,300)"
       stroke-opacity="0.4902"
       stroke="rgb(204,204,238)"
       id="g141">
      <rect
         x="0.5"
         width="208.5"
         height="28.5"
         y="0.5"
         clip-path="url(#clipPath10)"
         stroke="none"
         id="rect143" />
    </g>
    <g
       transform="translate(120,300)"
       id="g145">
      <rect
         fill="none"
         x="0.5"
         width="208.5"
         height="28.5"
         y="0.5"
         clip-path="url(#clipPath10)"
         id="rect147" />
      <text
         x="51"
         font-size="14px"
         y="18.1094"
         clip-path="url(#clipPath10)"
         font-family="sans-serif"
         stroke="none"
         xml:space="preserve"
         id="text149">Motor positions</text>
    </g>
    <g
       fill="rgb(204,204,238)"
       fill-opacity="0.4902"
       transform="translate(120,460)"
       stroke-opacity="0.4902"
       stroke="rgb(204,204,238)"
       id="g151">
      <rect
         x="0.5"
         width="208.5"
         height="38.5"
         y="0.5"
         clip-path="url(#clipPath11)"
         stroke="none"
         id="rect153" />
    </g>
    <g
       transform="translate(120,460)"
       id="g155">
      <rect
         fill="none"
         x="0.5"
         width="208.5"
         height="38.5"
         y="0.5"
         clip-path="url(#clipPath11)"
         id="rect157" />
      <text
         x="68"
         font-size="14px"
         y="18.1094"
         clip-path="url(#clipPath11)"
         font-family="sans-serif"
         stroke="none"
         xml:space="preserve"
         id="text159">Measure 2</text>
      <text
         x="98"
         font-size="14px"
         y="34.2188"
         clip-path="url(#clipPath11)"
         font-family="sans-serif"
         stroke="none"
         xml:space="preserve"
         id="text161">...</text>
    </g>
    <g
       fill="rgb(204,204,238)"
       fill-opacity="0.4902"
       transform="translate(120,340)"
       stroke-opacity="0.4902"
       stroke="rgb(204,204,238)"
       id="g163">
      <rect
         x="0.5"
         width="208.5"
         height="108.5"
         y="0.5"
         clip-path="url(#clipPath12)"
         stroke="none"
         id="rect165" />
    </g>
    <g
       transform="translate(120,340)"
       id="g167">
      <rect
         fill="none"
         x="0.5"
         width="208.5"
         height="108.5"
         y="0.5"
         clip-path="url(#clipPath12)"
         id="rect169" />
      <text
         x="68"
         font-size="14px"
         y="18.1094"
         clip-path="url(#clipPath12)"
         font-family="sans-serif"
         stroke="none"
         xml:space="preserve"
         id="text171">Measure 1</text>
    </g>
    <g
       fill="rgb(255,255,255)"
       fill-opacity="0.4902"
       transform="translate(130,410)"
       stroke-opacity="0.4902"
       stroke="rgb(255,255,255)"
       id="g173">
      <rect
         x="0.5"
         width="188.5"
         height="28.5"
         y="0.5"
         clip-path="url(#clipPath13)"
         stroke="none"
         id="rect175" />
    </g>
    <g
       transform="translate(130,410)"
       id="g177">
      <rect
         fill="none"
         x="0.5"
         width="188.5"
         height="28.5"
         y="0.5"
         clip-path="url(#clipPath13)"
         id="rect179" />
      <text
         x="72"
         font-size="14px"
         y="18.1094"
         clip-path="url(#clipPath13)"
         font-family="sans-serif"
         stroke="none"
         xml:space="preserve"
         id="text181">MCA 1</text>
    </g>
    <g
       fill="rgb(255,255,255)"
       fill-opacity="0.4902"
       transform="translate(110,520)"
       stroke-opacity="0.4902"
       stroke="rgb(255,255,255)"
       id="g183">
      <rect
         x="0.5"
         width="228.5"
         height="38.5"
         y="0.5"
         clip-path="url(#clipPath9)"
         stroke="none"
         id="rect185" />
    </g>
    <g
       transform="translate(110,520)"
       id="g187">
      <rect
         fill="none"
         x="0.5"
         width="228.5"
         height="38.5"
         y="0.5"
         clip-path="url(#clipPath9)"
         id="rect189" />
      <text
         x="91"
         font-size="14px"
         y="18.1094"
         clip-path="url(#clipPath9)"
         font-family="sans-serif"
         stroke="none"
         xml:space="preserve"
         id="text191">Scan 2</text>
      <text
         x="108"
         font-size="14px"
         y="34.2188"
         clip-path="url(#clipPath9)"
         font-family="sans-serif"
         stroke="none"
         xml:space="preserve"
         id="text193">...</text>
    </g>
    <g
       fill="rgb(255,255,255)"
       fill-opacity="0.4902"
       transform="translate(530,340)"
       stroke-opacity="0.4902"
       stroke="rgb(255,255,255)"
       id="g195">
      <rect
         x="0.5"
         width="188.5"
         height="78.5"
         y="0.5"
         clip-path="url(#clipPath14)"
         stroke="none"
         id="rect197" />
    </g>
    <g
       transform="translate(530,340)"
       id="g199">
      <rect
         fill="none"
         x="0.5"
         width="188.5"
         height="78.5"
         y="0.5"
         clip-path="url(#clipPath14)"
         id="rect201" />
      <text
         x="72"
         font-size="14px"
         y="18.1094"
         clip-path="url(#clipPath14)"
         font-family="sans-serif"
         stroke="none"
         xml:space="preserve"
         id="text203">mca_0</text>
      <path
         fill="none"
         d="M1 24.1094 L189 24.1094"
         clip-path="url(#clipPath14)"
         id="path205" />
      <text
         x="5"
         font-size="14px"
         y="39.2188"
         clip-path="url(#clipPath14)"
         font-family="sans-serif"
         stroke="none"
         xml:space="preserve"
         id="text207">+data</text>
      <text
         x="5"
         font-size="14px"
         y="55.3281"
         clip-path="url(#clipPath14)"
         font-family="sans-serif"
         stroke="none"
         xml:space="preserve"
         id="text209">+calibration</text>
      <text
         x="5"
         font-size="14px"
         y="71.4375"
         clip-path="url(#clipPath14)"
         font-family="sans-serif"
         stroke="none"
         xml:space="preserve"
         id="text211">+channel</text>
    </g>
    <g
       fill="rgb(255,255,255)"
       fill-opacity="0.4902"
       transform="translate(530,300)"
       stroke-opacity="0.4902"
       stroke="rgb(255,255,255)"
       id="g213">
      <rect
         x="0.5"
         width="188.5"
         height="28.5"
         y="0.5"
         clip-path="url(#clipPath13)"
         stroke="none"
         id="rect215" />
    </g>
    <g
       transform="translate(530,300)"
       id="g217">
      <rect
         fill="none"
         x="0.5"
         width="188.5"
         height="28.5"
         y="0.5"
         clip-path="url(#clipPath13)"
         id="rect219" />
      <text
         x="56"
         font-size="14px"
         y="18.1094"
         clip-path="url(#clipPath13)"
         font-family="sans-serif"
         stroke="none"
         xml:space="preserve"
         id="text221">positioners</text>
    </g>
    <g
       fill="rgb(255,255,255)"
       fill-opacity="0.4902"
       transform="translate(130,370)"
       stroke-opacity="0.4902"
       stroke="rgb(255,255,255)"
       id="g223">
      <rect
         x="0.5"
         width="188.5"
         height="28.5"
         y="0.5"
         clip-path="url(#clipPath13)"
         stroke="none"
         id="rect225" />
    </g>
    <g
       transform="translate(130,370)"
       id="g227">
      <rect
         fill="none"
         x="0.5"
         width="188.5"
         height="28.5"
         y="0.5"
         clip-path="url(#clipPath13)"
         id="rect229" />
      <text
         x="39"
         font-size="14px"
         y="18.1094"
         clip-path="url(#clipPath13)"
         font-family="sans-serif"
         stroke="none"
         xml:space="preserve"
         id="text231">Detector values</text>
    </g>
    <g
       fill="rgb(255,255,255)"
       fill-opacity="0.4902"
       transform="translate(530,470)"
       stroke-opacity="0.4902"
       stroke="rgb(255,255,255)"
       id="g233">
      <rect
         x="0.5"
         width="188.5"
         height="38.5"
         y="0.5"
         clip-path="url(#clipPath15)"
         stroke="none"
         id="rect235" />
    </g>
    <g
       transform="translate(530,470)"
       id="g237">
      <rect
         fill="none"
         x="0.5"
         width="188.5"
         height="38.5"
         y="0.5"
         clip-path="url(#clipPath15)"
         id="rect239" />
      <text
         x="72"
         font-size="14px"
         y="18.1094"
         clip-path="url(#clipPath15)"
         font-family="sans-serif"
         stroke="none"
         xml:space="preserve"
         id="text241">mca_0</text>
      <text
         x="19"
         font-size="14px"
         y="34.2188"
         clip-path="url(#clipPath15)"
         font-family="sans-serif"
         stroke="none"
         xml:space="preserve"
         id="text243">(link to mca_0 above)</text>
      <text
         x="88"
         font-size="14px"
         y="50.3281"
         clip-path="url(#clipPath15)"
         font-family="sans-serif"
         stroke="none"
         xml:space="preserve"
         id="text245">...</text>
    </g>
  </g>
  <path
     sodipodi:nodetypes="ccccccccccccccccc"
     inkscape:connector-curvature="0"
     id="path3321"
     d="m 516.04143,292.40786 c 0.29363,2.89112 0.71982,5.89589 2.15963,8.46112 3.60424,4.63844 7.61004,7.59606 12.59532,10.24454 1.78234,1.57699 2.7309,1.8684 5.6728,3.87512 -2.96279,1.58614 -6.47893,2.33659 -8.81198,4.24325 -2.747,1.08348 -4.49489,2.5892 -6.96288,4.21216 -2.2795,2.14117 -4.87662,4.24019 -5.87838,7.32476 -0.17303,0.50452 -1.17422,3.64486 -1.12038,2.24295 0.067,-3.02226 0.1339,-6.04452 0.20085,-9.06677 0.9432,-2.59773 2.05889,-5.25411 4.21092,-7.09749 1.8122,-2.05366 4.05097,-3.65755 6.50724,-4.85222 -3.11193,-7.33179 4.83507,4.80333 4.7911,5.7364 -0.30196,-1.63048 -3.04553,-1.14834 -4.3431,-1.86923 -2.84012,-0.99363 -5.75384,-2.08482 -7.90272,-4.28717 -2.40062,-2.04481 -3.11212,-5.27826 -3.62172,-8.24311 -0.20713,-0.97032 -0.1804,-1.93734 0.19057,-2.85907 0.77091,-2.68842 1.54182,-5.37683 2.31273,-8.06524 z"
     style="color:#000000;fill:#eca14f;fill-opacity:1;fill-rule:nonzero;stroke:none;stroke-width:1.94380164;marker:none;visibility:visible;display:inline;overflow:visible;enable-background:accumulate" />
  <path
     style="color:#000000;fill:#eca14f;fill-opacity:1;fill-rule:nonzero;stroke:none;stroke-width:1.94380164000000000;stroke-linecap:butt;stroke-linejoin:miter;stroke-miterlimit:4;stroke-opacity:1;stroke-dasharray:none;stroke-dashoffset:0;marker:none;visibility:visible;display:inline;overflow:visible;enable-background:accumulate"
     id="path3239"
     d="m 237.43825,157.21059 c 3.34938,0.4843 6.74099,0.5715 10.11905,0.66822 4.55334,0.11344 9.10812,0.10956 13.66248,0.12804 5.20344,-0.0299 10.40645,0.007 15.60959,0.0566 6.65672,0.0439 13.31357,0.0251 19.97029,-0.008 4.61042,-0.0427 9.22066,-0.0842 13.83128,-0.0934 3.04755,-0.004 6.09483,-0.0533 9.1423,-0.0676 2.10499,-0.0357 4.20986,-0.009 6.31486,-0.005 3.27416,0.0341 6.54825,0.0552 9.82258,0.065 3.31164,-0.0258 6.6233,-0.0257 9.935,-0.0251 3.30414,0.0177 6.6083,-0.007 9.91244,0.002 3.66049,-0.0182 7.32045,0.005 10.98041,0.0677 5.27164,0.0846 10.54494,0.0347 15.81667,-0.0258 3.33862,-0.0327 6.67738,-0.031 10.01599,-0.0671 2.08692,-0.0153 4.17403,-0.0396 6.26104,-0.0342 2.58393,-0.003 5.16768,0.0403 7.7513,0.0756 3.93576,0.032 7.87191,0.0285 11.80763,-0.009 2.38488,-0.0354 4.76997,-0.0489 7.15503,-0.0674 1.8421,-0.002 3.68415,-0.002 5.52623,-0.002 1.79944,-0.005 3.59881,0.001 5.39825,-0.004 1.37535,-0.0904 2.67976,0.19018 3.9681,0.6334 0,0 -0.41325,11.48326 -0.41325,11.48326 l 0,0 c -1.14983,-0.4769 -2.29651,-0.73016 -3.55485,-0.61506 -1.79944,-0.006 -3.59881,7.2e-4 -5.39825,-0.004 -1.84208,4.1e-4 -3.68413,-7e-5 -5.52623,-0.002 -2.38506,-0.0185 -4.77015,-0.0321 -7.15503,-0.0674 -3.93572,-0.0373 -7.87187,-0.0408 -11.80763,-0.009 -2.58362,0.0353 -5.16737,0.0786 -7.7513,0.0756 -2.08701,0.005 -4.17412,-0.0188 -6.26104,-0.0342 -3.33861,-0.0361 -6.67737,-0.0344 -10.01599,-0.0671 -5.27173,-0.0605 -10.54503,-0.11039 -15.81667,-0.0258 -3.65996,0.0623 -7.31992,0.0859 -10.98041,0.0677 -3.30414,0.009 -6.6083,-0.0155 -9.91244,0.002 -3.3117,5.7e-4 -6.62336,6.8e-4 -9.935,-0.0251 -3.27433,0.01 -6.54842,0.0309 -9.82258,0.065 -2.105,0.005 -4.20987,0.0312 -6.31486,-0.005 -3.04747,-0.0143 -6.09475,-0.0634 -9.1423,-0.0677 -4.61062,-0.009 -9.22084,-0.0507 -13.83125,-0.0933 -6.65666,-0.0329 -13.31345,-0.0513 -19.97008,-0.005 -5.20346,0.052 -10.40685,0.0943 -15.61065,0.0631 -4.56338,0.0118 -9.12727,0.0152 -13.69028,-0.0455 -3.41443,-0.0751 -6.82682,-0.20627 -10.23382,-0.45015 0,0 0.14339,-11.53004 0.14339,-11.53004 z"
     inkscape:connector-curvature="0"
     transform="translate(80,150)" />
  <path
     style="color:#000000;fill:#fae330;fill-opacity:1;fill-rule:nonzero;stroke:none;stroke-width:1.92602932000000004;stroke-linecap:butt;stroke-linejoin:miter;stroke-miterlimit:4;stroke-opacity:1;stroke-dasharray:none;stroke-dashoffset:0;marker:none;visibility:visible;display:inline;overflow:visible;enable-background:accumulate"
     id="path3266"
     d="m 238.91009,383.60474 c 3.08853,0.0524 6.17983,0.17214 9.26097,-0.0683 4.18763,-0.43079 8.32713,-1.19396 12.51192,-1.66196 3.29125,-0.35813 6.60277,-0.37216 9.90893,-0.37705 3.77614,-0.21696 7.49484,0.19496 11.23019,0.67915 5.6086,1.20763 11.30342,1.74922 17.02006,2.0864 6.35099,0.29561 12.70916,0.18107 19.06058,0.44309 3.72985,0.0998 7.4179,0.82183 11.07454,1.52322 2.85858,0.62703 5.67019,1.39056 8.43898,2.33541 4.29896,1.41345 8.66439,2.62351 13.03481,3.79586 4.22767,1.12871 8.51302,2.06187 12.81563,2.85897 3.6808,0.94186 7.31751,2.01338 11.04131,2.78475 4.46644,1.16028 8.9373,2.27857 13.48874,3.053 4.15878,0.48539 8.296,1.03368 12.32187,2.2077 3.04736,0.98215 6.1102,1.91411 9.21363,2.70245 2.87039,0.6777 5.81792,0.85257 8.75467,0.95724 2.68571,0.0447 5.37202,0.0638 8.05808,0.0495 2.75699,0.005 5.51388,-0.004 8.27076,-0.031 2.03659,-0.0109 4.07311,-0.0186 6.10972,-0.0215 2.04139,0.015 4.08288,0.002 6.12434,0.007 0,0 -2e-5,11.47511 -2e-5,11.47511 l 0,0 c -2.04144,0.005 -4.08292,-0.008 -6.1243,0.007 -2.0363,-0.003 -4.07252,-0.0104 -6.10882,-0.0185 -2.75647,-0.0228 -5.51293,-0.0241 -8.26944,-0.006 -2.70066,-0.004 -5.40231,0.0517 -8.10202,-0.0451 -3.01523,-0.11288 -6.03672,-0.33792 -8.98917,-0.99564 -3.13355,-0.7564 -6.21818,-1.70932 -9.26508,-2.76055 -3.97223,-1.20821 -8.0656,-1.78964 -12.18094,-2.28843 -4.55968,-0.75349 -9.04232,-1.86316 -13.52499,-2.97839 -3.73534,-0.71852 -7.3653,-1.78947 -11.02842,-2.7989 -4.32905,-0.82631 -8.64355,-1.7854 -12.91034,-2.88418 -4.36129,-1.24685 -8.74454,-2.40385 -13.08197,-3.73349 -2.75192,-0.8257 -5.50931,-1.62833 -8.30694,-2.28793 -3.60686,-0.71945 -7.22795,-1.52674 -10.9113,-1.69001 -6.34884,-0.38048 -12.70534,-0.37488 -19.06002,-0.62737 -5.7423,-0.24632 -11.45878,-0.67314 -17.10534,-1.80801 -3.68842,-0.44883 -7.3541,-0.8708 -11.08119,-0.64424 -3.26847,0.0391 -6.54089,0.0827 -9.79915,0.3684 -4.19728,0.40254 -8.34546,1.13838 -12.53151,1.63019 -3.11409,0.29585 -6.23383,0.1955 -9.35877,0.28016 0,0 0,-11.51692 0,-11.51692 z"
     inkscape:connector-curvature="0"
     transform="translate(80,150)" />
  <path
     sodipodi:nodetypes="ccccccccccccccccc"
     inkscape:connector-curvature="0"
     id="path3321-3"
     d="m 520.91806,540.98645 c 0.29363,2.89112 0.71982,5.89589 2.15963,8.46112 3.60424,4.63844 7.61004,7.59606 12.59532,10.24454 1.78234,1.57699 2.7309,1.8684 5.6728,3.87512 -2.96279,1.58614 -6.47893,2.33659 -8.81198,4.24325 -2.747,1.08348 -4.49489,2.5892 -6.96288,4.21216 -2.2795,2.14117 -4.87662,4.24019 -5.87838,7.32476 -0.17303,0.50452 -1.17422,3.64486 -1.12038,2.24295 0.067,-3.02226 0.1339,-6.04452 0.20085,-9.06677 0.9432,-2.59773 2.05889,-5.25411 4.21092,-7.09749 1.8122,-2.05366 4.05097,-3.65755 6.50724,-4.85222 -3.11193,-7.33179 4.83507,4.80333 4.7911,5.7364 -0.30196,-1.63048 -3.04553,-1.14834 -4.3431,-1.86923 -2.84012,-0.99363 -5.75384,-2.08482 -7.90272,-4.28717 -2.40062,-2.04481 -3.11212,-5.27826 -3.62172,-8.24311 -0.20713,-0.97032 -0.1804,-1.93734 0.19057,-2.85907 0.77091,-2.68842 1.54182,-5.37683 2.31273,-8.06524 z"
     style="color:#000000;fill:#fae330;fill-opacity:1;fill-rule:nonzero;stroke:none;stroke-width:1.92602932;marker:none;visibility:visible;display:inline;overflow:visible;enable-background:accumulate" />
  <path
     sodipodi:nodetypes="ccccccccccccccccc"
     inkscape:connector-curvature="0"
     id="path3321-6"
     d="m 515.13652,433.59311 c 0.29363,2.89112 0.71982,5.89589 2.15963,8.46112 3.60424,4.63844 7.61004,7.59606 12.59532,10.24454 1.78234,1.57699 2.7309,1.8684 5.6728,3.87512 -2.96279,1.58614 -6.47893,2.33659 -8.81198,4.24325 -2.747,1.08348 -4.49489,2.5892 -6.96288,4.21216 -2.2795,2.14117 -4.87662,4.24019 -5.87838,7.32476 -0.17303,0.50452 -1.17422,3.64486 -1.12038,2.24295 0.067,-3.02226 0.1339,-6.04452 0.20085,-9.06677 0.9432,-2.59773 2.05889,-5.25411 4.21092,-7.09749 1.8122,-2.05366 4.05097,-3.65755 6.50724,-4.85222 -3.11193,-7.33179 4.83507,4.80333 4.7911,5.7364 -0.30196,-1.63048 -3.04553,-1.14834 -4.3431,-1.86923 -2.84012,-0.99363 -5.75384,-2.08482 -7.90272,-4.28717 -2.40062,-2.04481 -3.11212,-5.27826 -3.62172,-8.24311 -0.20713,-0.97032 -0.1804,-1.93734 0.19057,-2.85907 0.77091,-2.68842 1.54182,-5.37683 2.31273,-8.06524 z"
     style="color:#000000;fill:#f8db30;fill-opacity:1;fill-rule:nonzero;stroke:none;stroke-width:1.95221603;marker:none;visibility:visible;display:inline;overflow:visible;enable-background:accumulate" />
  <path
     sodipodi:nodetypes="ccccccccccccccccc"
     inkscape:connector-curvature="0"
     id="path3321-7"
     d="m 508.03107,351.39323 c 0.29363,2.89112 0.71982,5.89589 2.15963,8.46112 3.60424,4.63844 7.61004,7.59606 12.59532,10.24454 1.78234,1.57699 2.7309,1.8684 5.6728,3.87512 -2.96279,1.58614 -6.47893,2.33659 -8.81198,4.24325 -2.747,1.08348 -4.49489,2.5892 -6.96288,4.21216 -2.2795,2.14117 -4.87662,4.24019 -5.87838,7.32476 -0.17303,0.50452 -1.17422,3.64486 -1.12038,2.24295 0.067,-3.02226 0.1339,-6.04452 0.20085,-9.06677 0.9432,-2.59773 2.05889,-5.25411 4.21092,-7.09749 1.8122,-2.05366 4.05097,-3.65755 6.50724,-4.85222 -3.11193,-7.33179 4.83507,4.80333 4.7911,5.7364 -0.30196,-1.63048 -3.04553,-1.14834 -4.3431,-1.86923 -2.84012,-0.99363 -5.75384,-2.08482 -7.90272,-4.28717 -2.40062,-2.04481 -3.11212,-5.27826 -3.62172,-8.24311 -0.20713,-0.97032 -0.1804,-1.93734 0.19057,-2.85907 0.77091,-2.68842 1.54182,-5.37683 2.31273,-8.06524 z"
     style="color:#000000;fill:#f2bc2e;fill-opacity:1;fill-rule:nonzero;stroke:none;stroke-width:1.94799995000000004;marker:none;visibility:visible;display:inline;overflow:visible;enable-background:accumulate" />
  <path
     style="color:#000000;fill:#f2bc2e;fill-opacity:1;fill-rule:nonzero;stroke:none;stroke-width:1.94799995000000004;stroke-linecap:butt;stroke-linejoin:miter;stroke-miterlimit:4;stroke-opacity:1;stroke-dasharray:none;stroke-dashoffset:0;marker:none;visibility:visible;display:inline;overflow:visible;enable-background:accumulate"
     id="path3306"
     d="m 239.55119,336.58633 c 2.28912,0.0209 4.57843,0.0138 6.86762,0.0113 1.93826,-0.004 3.87652,-0.003 5.81478,-0.006 2.12015,0.002 4.24031,0.007 6.36046,0.007 2.11875,5.8e-4 4.23749,-0.003 6.35623,-0.004 1.82571,-0.0466 3.6598,0.0966 5.47836,-0.0899 1.63271,-0.51204 3.29051,-0.88128 4.9612,-1.23974 1.8486,-0.34414 3.67362,-0.79957 5.48378,-1.30743 1.9144,-0.5946 3.48592,-1.81997 4.98602,-3.10251 1.46591,-1.57623 2.54735,-3.38214 3.22181,-5.41852 0.46762,-1.85128 0.86354,-3.699 1.03955,-5.60172 0.0834,-1.05752 0.11583,-2.11823 0.1379,-3.17852 0.007,-0.34082 0.0278,-1.36323 0.0159,-1.02255 -0.0936,2.67787 0.0278,3.38708 -0.17649,1.47076 -0.26146,-1.82603 -0.4121,-3.66152 -0.49249,-5.50348 -0.0625,-1.80159 -0.0613,-3.60465 -0.0624,-5.4071 -0.003,-3.00809 0.003,-6.01619 0.004,-9.02428 0.001,-1.81456 6e-4,-3.62913 0.001,-5.44369 8e-5,0.64294 2e-5,-2.45188 -6e-5,-1.83891 -1.2e-4,0.89141 -1.8e-4,1.78281 -1.4e-4,2.67422 10e-6,0.30978 -0.006,-0.61962 2.2e-4,-0.92935 0.0891,-4.63655 -0.0782,-3.03767 0.22897,-5.47382 0.40576,-1.83501 0.84641,-3.65812 1.29944,-5.48068 0.86143,-2.09945 1.84799,-4.15232 3.06141,-6.07299 1.57106,-1.95346 3.58157,-3.53463 5.69629,-4.86117 2.12014,-1.31317 4.24115,-2.63378 6.29113,-4.05513 1.78549,-1.06688 3.72785,-1.85313 5.59467,-2.77872 0.29767,-0.12996 0.59534,-0.25992 0.89301,-0.38987 0,0 0.14818,3.58622 0.14818,3.58622 l 0,0 c -0.29211,0.12845 -0.58423,0.25691 -0.87634,0.38536 -1.85257,0.91684 -3.78546,1.69006 -5.54373,2.77448 -2.06132,1.40643 -4.18592,2.72079 -6.30454,4.03844 -2.06038,1.33629 -4.05218,2.8864 -5.53626,4.86268 -1.17694,1.91825 -2.18045,3.95627 -2.9495,6.07117 -0.46137,1.81304 -0.8915,3.63449 -1.25523,5.46988 -0.22766,1.96841 -0.0745,1.05559 -0.1857,-1.62295 -0.0128,-0.30858 2.2e-4,0.61769 2.3e-4,0.92653 3e-5,2.08724 -1.8e-4,4.17447 -2.6e-4,6.26171 3.4e-4,1.81493 -3.9e-4,3.62986 -0.001,5.44479 -8.9e-4,1.24161 -0.005,8.26371 -0.004,1.92883 7.4e-4,1.80114 -0.003,3.60272 0.0485,5.40329 0.0684,1.84266 0.19378,3.68138 0.46576,5.50684 0.38904,3.25396 0.23353,6.56167 0.0273,9.8255 -0.20551,1.90633 -0.61236,3.76933 -1.12303,5.61748 -0.75006,2.03886 -1.88166,3.87711 -3.41206,5.43266 -1.5477,1.29993 -3.17557,2.52232 -5.13969,3.1148 -1.81684,0.50982 -3.6511,0.95534 -5.50535,1.30598 -1.68198,0.36868 -3.34784,0.76535 -5.00215,1.24531 -1.83118,0.17732 -3.67629,0.0477 -5.51406,0.0843 -2.11874,-0.001 -4.23748,-0.005 -6.35623,-0.004 -2.12015,-7.5e-4 -4.24031,0.004 -6.36046,0.007 -1.93826,-0.003 -3.87652,-0.002 -5.81478,-0.006 -2.28919,-0.003 -4.5785,-0.01 -6.86762,0.0113 0,0 0,-3.60371 0,-3.60371 z"
     inkscape:connector-curvature="0"
     transform="translate(80,150)" />
  <path
     style="color:#000000;fill:#eca14f;fill-opacity:1;fill-rule:nonzero;stroke:none;stroke-width:1.94380164000000000;stroke-linecap:butt;stroke-linejoin:miter;stroke-miterlimit:4;stroke-opacity:1;stroke-dasharray:none;stroke-dashoffset:0;marker:none;visibility:visible;display:inline;overflow:visible;enable-background:accumulate"
     id="path3310"
     d="m 229.3786,223.07227 c 2.31353,0.3175 4.64403,0.47016 6.97563,0.57026 1.9894,0.0779 3.9805,0.0744 5.97101,0.0844 2.05057,0.002 4.10115,-8.8e-4 6.15172,-0.006 1.99876,-0.18355 3.86641,0.15948 5.78665,0.65924 1.72216,0.4932 3.50337,0.65146 5.28403,0.74538 2.03647,0.0754 4.07493,0.064 6.11243,0.0646 2.22139,0.14966 4.34206,-0.55205 6.49349,-0.9768 1.83549,-0.36027 3.7065,-0.4344 5.571,-0.48489 2.12944,-0.31867 4.28867,-0.39572 6.40637,-0.77518 3.16448,-0.94104 6.3653,-1.76423 9.483,-2.85495 1.97283,-0.92223 4.11129,-1.4044 6.09827,-2.27853 1.80656,-0.84059 3.66421,-1.53832 5.45516,-2.41846 1.97931,-1.06326 3.48656,-2.64021 4.77662,-4.44262 1.08431,-2.02361 1.91363,-4.17836 2.86909,-6.27114 0.79429,-1.98998 1.49509,-4.03585 1.89319,-6.1452 0.21856,-2.04682 0.47198,-4.08855 0.68998,-6.1364 0.0812,-2.35104 0.79851,-4.57636 1.58523,-6.7677 0.79615,-1.59011 1.52474,-3.22824 2.42494,-4.76486 0.99085,-1.58809 2.27203,-2.93416 3.67949,-4.15258 1.67681,-1.13456 3.48054,-2.0718 5.23145,-3.09395 1.68624,-1.05498 3.51554,-1.63925 5.41699,-2.14928 2.10814,-0.41343 4.19936,-0.76543 6.25805,-1.38896 1.74346,-0.4132 3.29033,-1.32856 4.98106,-1.89384 1.64805,-0.62261 3.36506,-0.97216 5.11257,-1.14618 1.88965,0.0511 3.659,-0.57282 5.46867,-1.01913 1.77101,-0.37564 3.57751,-0.47389 5.36395,-0.7582 1.20683,-0.20518 2.4235,-0.32792 3.64352,-0.41628 0,0 0.0266,3.59115 0.0266,3.59115 l 0,0 c -1.2094,0.0922 -2.4165,0.21096 -3.61297,0.41579 -1.77622,0.28791 -3.57405,0.3765 -5.33439,0.75837 -1.82522,0.44913 -3.61419,1.06662 -5.51876,1.02167 -1.72069,0.18106 -3.41196,0.52446 -5.03215,1.14917 -1.68788,0.57489 -3.24465,1.48095 -4.99344,1.88154 -2.06386,0.61581 -4.16115,0.96033 -6.26807,1.39085 -1.8686,0.50883 -3.66319,1.10623 -5.32218,2.14086 -1.73232,1.01481 -3.53091,1.9322 -5.16312,3.09893 -1.37405,1.21339 -2.61597,2.56325 -3.56012,4.14577 -0.86143,1.54167 -1.63224,3.14397 -2.36293,4.74926 -0.77718,2.18316 -1.40808,4.41085 -1.50339,6.74383 -0.22626,2.05326 -0.43725,4.1094 -0.71999,6.15462 -0.44731,2.1047 -1.14375,4.15846 -1.97742,6.14005 -0.96742,2.10383 -1.74676,4.30836 -2.93848,6.29386 -1.34042,1.81278 -2.93562,3.38314 -4.95063,4.44636 -1.79565,0.88184 -3.6588,1.59154 -5.47207,2.43207 -2.0033,0.85058 -4.14047,1.34791 -6.12637,2.25414 -3.14361,1.06783 -6.36287,1.88961 -9.53764,2.85774 -2.13538,0.3885 -4.31181,0.48776 -6.46077,0.8015 -1.84448,0.0461 -3.69436,0.12285 -5.51052,0.47613 -2.1737,0.42835 -4.31903,1.11877 -6.56303,0.97206 -2.04396,0.004 -4.08881,0.0192 -6.13192,-0.0505 -1.80422,-0.0978 -3.61184,-0.25054 -5.35668,-0.75206 -1.89088,-0.49747 -3.72325,-0.8458 -5.69454,-0.65672 -2.05088,-0.002 -4.10174,2.1e-4 -6.15261,8.3e-4 -1.99566,0.003 -3.99207,-0.0103 -5.98638,-0.0891 -2.34034,-0.10885 -4.6772,-0.27154 -7.00444,-0.5481 0,0 0.0448,-3.60314 0.0448,-3.60314 z"
     inkscape:connector-curvature="0"
     transform="translate(80,150)" />
  <path
     style="color:#000000;fill:#eca14f;fill-opacity:1;fill-rule:nonzero;stroke:none;stroke-width:1.94380164000000000;stroke-linecap:butt;stroke-linejoin:miter;stroke-miterlimit:4;stroke-opacity:1;stroke-dasharray:none;stroke-dashoffset:0;marker:none;visibility:visible;display:inline;overflow:visible;enable-background:accumulate"
     id="path3316"
     d="m 320.28445,468.23194 c 2.41032,0.12272 4.79869,-0.0623 7.1912,-0.33082 2.00922,-0.13815 3.98925,-0.43721 5.97862,-0.73623 1.99223,-0.21597 3.97412,-0.52644 5.93048,-0.96466 2.07889,-0.49486 4.19324,-0.75978 6.32133,-0.89928 2.22074,-0.41656 4.37423,-1.08785 6.52571,-1.7672 2.38364,-0.74844 4.78777,-1.41337 7.25735,-1.79399 1.46314,-0.29399 2.96857,-0.15261 4.44118,-0.29751 0.55511,-0.0546 1.90297,-0.34596 2.42852,-0.4535 2.14672,-0.77425 4.46315,-1.03878 6.53569,-1.99839 1.89741,-1.07754 3.44718,-2.64147 4.98699,-4.16886 1.49516,-1.47605 2.96002,-2.97021 4.28681,-4.60192 1.12921,-1.61131 1.86319,-3.43941 2.91997,-5.09844 1.11216,-1.52076 1.76571,-3.19571 2.35934,-4.96213 0.40334,-1.76477 1.0363,-3.43102 1.84646,-5.04436 0.71393,-1.7147 1.37616,-3.46569 1.97247,-5.22796 0.60628,-1.83152 0.75735,-3.74986 0.84892,-5.66398 0.26344,-1.71426 0.91046,-3.32879 1.24157,-5.03384 0.2975,-1.78643 0.18637,-3.60436 0.4069,-5.39533 0.20149,-1.8976 0.57715,-3.75768 0.93472,-5.62902 0.34319,-2.25062 0.3955,-4.52934 0.44035,-6.80142 0.0167,-1.13528 0.0213,-2.2707 0.0229,-3.40609 4.5e-4,-0.33515 2.5e-4,-1.3406 2e-4,-1.00545 -4.9e-4,3.03768 4.8e-4,3.52514 -0.002,1.64831 -0.004,-2.04064 -0.005,-4.08127 -0.005,-6.12191 -10e-4,-2.06127 -10e-4,-4.12253 -10e-4,-6.18381 7.8e-4,-3.12848 -7.6e-4,-6.25696 0,-9.38545 -2.8e-4,-1.8975 1.2e-4,-3.79498 -7e-5,-5.69247 -4e-5,-0.30337 -1.6e-4,-0.60675 -1.4e-4,-0.91014 2e-5,-0.64349 2.7e-4,-2.57397 2.4e-4,-1.93048 -2.8e-4,5.68374 -3e-4,2.07935 -10e-6,0.86999 7e-5,-1.78348 -3.8e-4,-3.56696 -6.2e-4,-5.35044 -0.004,-1.70767 0.10455,-3.40663 -0.25892,-5.08338 -0.80026,-2.91197 -0.79978,-6.12005 -0.32464,-9.07866 0.33647,-1.6826 0.45811,-3.39096 0.53239,-5.10197 -0.0381,-1.85862 0.20478,-3.66401 0.87862,-5.39544 0.60295,-1.36274 1.18887,-2.73451 1.80281,-4.09313 l 0.42556,3.71524 0.12873,-1.80224 c -0.59575,1.36075 -1.3506,4.51042 -1.90708,5.88727 -0.5971,1.74236 -0.78024,3.54286 -0.76597,5.38296 -0.0883,1.71431 -0.24586,3.42079 -0.56926,5.10853 -0.24213,1.77283 -0.11664,1.19749 -0.18845,-1.93995 -0.0356,-1.55923 0.0604,4.92004 0.4784,3.6126 0.45881,1.67292 0.361,3.36886 0.34864,5.0922 -2.5e-4,1.7861 -6.9e-4,3.5722 -6.2e-4,5.3583 7.5e-4,3.11599 -2.6e-4,6.23199 9e-5,9.34798 -2e-4,1.89713 2e-4,3.79425 -1.1e-4,5.69138 3e-4,1.33038 -2e-4,8.67463 -8e-5,2.00967 -3.3e-4,2.06394 -1.5e-4,4.12789 6e-5,6.19183 10e-4,2.03856 0.003,4.07712 0.006,6.11568 0.004,3.37584 0.0188,6.75205 -0.0304,10.12764 -0.0538,2.2807 -0.11786,4.56961 -0.50098,6.8235 -0.3654,1.86535 -0.70122,3.73079 -0.90377,5.62293 -0.16422,1.8012 -0.10336,3.62399 -0.44119,5.40887 -0.3647,1.68306 -1.02065,3.29722 -1.18744,5.01794 -0.11314,1.9238 -0.30989,3.84584 -0.95281,5.67576 -0.62436,1.76254 -1.24727,3.5366 -2.0168,5.23931 -0.77232,1.62083 -1.36007,3.29183 -1.79796,5.03551 -0.59391,1.78046 -1.3658,3.42581 -2.44701,4.96864 -1.03219,1.6801 -1.7693,3.5295 -2.96701,5.10378 -1.3437,1.62685 -2.83156,3.11366 -4.32597,4.59961 -1.57198,1.54704 -3.16252,3.12375 -5.11804,4.17656 -2.11365,0.92788 -4.43608,1.24004 -6.61712,1.99025 -0.6199,0.12743 -1.85194,0.39833 -2.49215,0.46136 -1.45733,0.1435 -2.94665,0.0147 -4.3952,0.29714 -2.45107,0.38196 -4.83854,1.03256 -7.20077,1.79074 -2.17644,0.69833 -4.36562,1.35719 -6.61469,1.77829 -2.10895,0.1372 -4.20617,0.39858 -6.2645,0.89704 -1.96491,0.43866 -3.95539,0.74913 -5.95587,0.967 -1.99316,0.30626 -3.97957,0.59499 -5.99378,0.72806 -2.40694,0.26061 -4.80781,0.43388 -7.23144,0.35494 l 0,-3.74696 z"
     inkscape:connector-curvature="0"
     sodipodi:nodetypes="cccccccccccccccccccccccccccccscccccccccccccccccccccccccccccccccccccccccccc" />
  <path
     style="color:#000000;fill:#f8db30;fill-opacity:1;fill-rule:nonzero;stroke:none;stroke-width:1.95221603;marker:none;visibility:visible;display:inline;overflow:visible;enable-background:accumulate"
     id="path3451"
     d="m 320.09381,477.11551 c 0.67605,0 1.35209,0 2.02814,0 1.01222,0 2.02445,0 3.03668,0 1.47092,0 2.94184,0 4.41276,0 1.84711,0 3.69422,0 5.54133,0 2.3859,0 4.77181,0 7.15772,0 2.45742,0 4.91485,0 7.37227,0 2.57456,0 5.14912,0 7.72368,0 2.21629,-0.0716 4.43275,-0.14468 6.64865,-0.22848 1.00401,-0.0801 2.0121,-0.12371 3.01494,-0.21904 0.87676,-0.0833 1.75111,-0.21364 2.62342,-0.33402 1.30913,-0.18752 2.61777,-0.36543 3.93715,-0.45818 0.97488,-0.11219 1.9477,-0.24247 2.92054,-0.37154 1.02993,-0.13477 2.06496,-0.23151 3.09084,-0.39471 1.45651,-0.23838 2.92268,-0.40593 4.38481,-0.60267 1.63446,-0.17842 3.2559,-0.44314 4.86834,-0.76372 1.68818,-0.39125 3.35825,-0.85712 5.02652,-1.32613 0.82806,-0.26084 1.66538,-0.50132 2.47037,-0.8309 0.10777,-0.0442 0.96028,-0.42696 1.06936,-0.47582 0.92599,-0.41174 1.80356,-0.91944 2.67295,-1.43919 0.6776,-0.41912 1.28829,-0.93201 1.92197,-1.41294 1.08666,-0.80671 2.21038,-1.54845 3.38053,-2.22492 1.00726,-0.5485 2.01331,-1.09981 2.9911,-1.70084 0.82911,-0.46921 1.67727,-0.89998 2.50485,-1.37224 0.62411,-0.39337 1.26121,-0.75698 1.94128,-1.04144 0.1296,-0.0507 0.25788,-0.105 0.3888,-0.15214 0.44145,-0.15897 0.3912,-0.11981 0.83713,-0.26716 0.41975,-0.1387 0.82809,-0.29292 1.25302,-0.41647 0.57781,-0.18767 1.17959,-0.26849 1.77252,-0.38697 0.37606,-0.0751 0.74939,-0.16355 1.12442,-0.24373 1.3907,-0.2232 2.75733,-0.55955 4.11803,-0.92046 1.10775,-0.29619 2.24152,-0.47523 3.3658,-0.69325 0.90085,-0.20317 1.81048,-0.36849 2.70706,-0.59124 0.45088,-0.11202 0.89711,-0.24235 1.34609,-0.36189 0.86575,-0.2359 1.75796,-0.32513 2.64307,-0.44864 0.21543,-0.0301 0.43014,-0.0651 0.64521,-0.0977 0.22891,-0.0314 0.45783,-0.0628 0.68674,-0.0941 0.95354,-0.12877 1.91648,-0.17606 2.86592,-0.33553 0.33414,-0.0562 0.89561,-0.17284 1.2357,-0.2419 1.28368,-0.31663 2.60692,-0.39296 3.92052,-0.48251 1.11747,-0.0908 2.24024,-0.0646 3.35906,-0.11439 0.64343,-0.0287 0.94568,-0.0728 1.58185,-0.14332 1.17721,-0.14819 2.35906,-0.24599 3.5215,-0.49204 0.61132,-0.10785 1.19486,-0.3234 1.79245,-0.48466 0.50335,-0.1339 1.02347,-0.17139 1.54136,-0.19352 0.60907,-0.0161 1.2185,-0.0106 1.82773,-0.0106 0.77885,0.001 1.5577,0.002 2.33655,0.002 0.49052,2.5e-4 0.98105,3e-4 1.47157,3e-4 0.33203,0 0.66405,-10e-6 0.99608,-10e-6 0.31871,-1e-5 0.63741,-1e-5 0.95612,-1e-5 0.2231,0 0.10903,0 0.33981,0 0,0 0,3.38082 0,3.38082 l 0,0 c -0.23037,0 -0.11709,0 -0.33981,0 -0.31871,0 -0.63741,0 -0.95612,0 -0.33202,10e-6 -0.66405,2e-5 -0.99608,2e-5 -0.49059,-1e-5 -0.98117,-5e-5 -1.47175,-2.9e-4 -0.77894,-4.2e-4 -1.55788,-0.001 -2.33682,-0.002 -0.60429,-8.2e-4 -1.2088,-0.006 -1.81294,0.01 -0.49327,0.0216 -0.98851,0.0587 -1.46659,0.19237 -0.60239,0.16956 -1.19584,0.37497 -1.81338,0.48516 -1.17384,0.24151 -2.36553,0.34483 -3.55332,0.49253 -0.65629,0.0717 -0.94749,0.11411 -1.61184,0.14351 -1.11344,0.0492 -2.23073,0.0238 -3.34281,0.11432 -1.29944,0.0892 -2.60739,0.16718 -3.87698,0.48193 -0.37203,0.075 -0.88485,0.18148 -1.25363,0.24221 -0.95084,0.15658 -1.9144,0.20639 -2.86887,0.33558 -1.31559,0.18139 -2.64134,0.32592 -3.934,0.63966 -1.34945,0.35969 -2.70533,0.68637 -4.0762,0.95366 -1.11734,0.21506 -2.24332,0.39597 -3.34333,0.69274 -1.36621,0.36046 -2.7388,0.69307 -4.13389,0.92084 -0.95831,0.20524 -1.92666,0.3665 -2.8714,0.63006 -0.82216,0.2479 -1.63566,0.53425 -2.44007,0.83442 -0.664,0.29183 -1.28437,0.66241 -1.90387,1.03972 -0.82574,0.46893 -1.67512,0.89209 -2.49487,1.3717 -0.98379,0.5949 -1.99129,1.14726 -2.99798,1.70122 -1.15555,0.67627 -2.26539,1.41922 -3.33876,2.22245 -0.63929,0.49155 -1.26764,0.99988 -1.96024,1.41522 -0.88109,0.52324 -1.77408,1.02734 -2.71192,1.44106 -0.26058,0.1161 -0.82826,0.37188 -1.08961,0.4766 -0.81574,0.32684 -1.6608,0.57209 -2.49879,0.8318 -1.67689,0.46929 -3.35443,0.94003 -5.0523,1.32674 -1.61945,0.32017 -3.24799,0.58355 -4.88901,0.76404 -1.45984,0.19528 -2.92326,0.36479 -4.37734,0.60257 -1.02913,0.15993 -2.06627,0.26052 -3.09901,0.39483 -0.97962,0.12872 -1.95865,0.26316 -2.94066,0.37176 -1.31198,0.0932 -2.61318,0.27248 -3.91517,0.45795 -0.87932,0.1209 -1.76044,0.25073 -2.64424,0.33423 -1.00689,0.0951 -2.01886,0.1401 -3.02697,0.21911 -2.22008,0.0837 -4.44069,0.15753 -6.66116,0.2285 -2.57456,0 -5.14912,0 -7.72368,0 -2.45742,0 -4.91485,0 -7.37227,0 -2.38591,0 -4.77182,0 -7.15772,0 -1.84711,0 -3.69422,0 -5.54133,0 -1.47092,0 -2.94184,0 -4.41276,0 -1.01223,0 -2.02446,0 -3.03668,0 -0.67605,0 -1.35209,0 -2.02814,0 0,0 0,-3.38083 0,-3.38083 z"
     inkscape:connector-curvature="0" />
  <path
     style="color:#000000;fill:#f2bc2e;fill-opacity:1;fill-rule:nonzero;stroke:none;stroke-width:1.94799995000000004;stroke-linecap:butt;stroke-linejoin:miter;stroke-miterlimit:4;stroke-opacity:1;stroke-dasharray:none;stroke-dashoffset:0;marker:none;visibility:visible;display:inline;overflow:visible;enable-background:accumulate"
     id="path3270"
     d="m 309.35619,417.81117 c 2.61926,0.098 5.24209,0.0731 7.86271,0.0583 3.63242,0.0389 7.2639,0.0803 10.89661,0.0626 2.78658,-0.0152 5.57284,-0.0608 8.35936,-0.0844 1.92437,-0.0178 3.84886,-0.0109 5.77331,-0.005 2.23129,0.0185 4.46268,0.002 6.69396,0.0171 2.24824,0.0353 4.48278,0.005 6.72175,-0.20634 2.76809,-0.25707 5.53227,-0.57284 8.28734,-0.96187 2.86946,-0.40048 5.63713,-1.36233 8.41889,-2.18101 1.97087,-0.75881 4.00348,-1.36005 5.94456,-2.19904 2.92948,-1.36448 6.06373,-2.09474 9.12149,-3.04187 3.96581,-1.44496 8.05065,-2.43462 11.96752,-4.03109 2.85325,-1.0416 5.47073,-2.60568 8.07916,-4.19046 2.11073,-1.01406 3.72067,-2.73704 5.4491,-4.3133 2.16997,-1.79404 4.52808,-3.29269 6.85644,-4.83526 2.53646,-1.71708 5.13942,-3.32473 7.63187,-5.11463 2.40757,-1.79078 5.05257,-3.16105 7.56347,-4.76609 2.42094,-1.60601 5.09999,-2.70371 7.66323,-4.02228 2.0857,-1.15251 4.3855,-1.70235 6.56962,-2.58357 2.434,-1.08002 5.04234,-1.4347 7.61939,-1.88556 2.14982,-0.33367 4.28746,-0.65729 6.40516,-1.18154 2.35394,-0.71325 4.80556,-0.79321 7.20125,-1.26258 3.29226,-0.73902 6.61292,-1.25793 9.95549,-1.65833 2.2606,-0.38114 4.51679,-0.79772 6.80029,-0.98417 2.09558,-0.0461 4.16098,-0.30815 6.19776,-0.83122 2.45183,-0.81135 5.01563,-0.99434 7.5369,-1.40033 2.3317,-0.423 4.68813,-0.60236 7.04761,-0.71799 1.91595,-0.0456 3.84168,-0.19002 5.75373,-0.0139 0.27065,0.0668 0.54131,0.13357 0.81198,0.20036 0,0 -0.28505,11.51066 -0.28505,11.51066 l 0,0 c -0.21002,-0.072 -0.42004,-0.14392 -0.63006,-0.21587 -1.85931,-0.21226 -3.73863,-0.0355 -5.60487,-0.0364 -2.32392,0.0975 -4.64337,0.29473 -6.93989,0.70072 -2.49501,0.36695 -5.01571,0.59446 -7.43816,1.38707 -2.09137,0.53493 -4.21256,0.86984 -6.36699,0.89451 -2.26923,0.189 -4.51922,0.53517 -6.77325,0.86707 -3.32693,0.33717 -6.60715,0.92426 -9.87287,1.67961 -2.38078,0.46117 -4.80226,0.66127 -7.14493,1.3348 -2.13712,0.54746 -4.31022,0.79797 -6.4806,1.14812 -2.51218,0.43717 -5.05022,0.78537 -7.41077,1.87594 -2.16571,0.85165 -4.40927,1.48424 -6.48285,2.59145 -2.55719,1.24042 -5.18779,2.35417 -7.56731,3.96561 -2.53004,1.54705 -5.10479,3.01606 -7.50689,4.79077 -2.52763,1.73265 -5.12213,3.35204 -7.65601,5.07467 -2.28497,1.55054 -4.61256,3.04784 -6.68979,4.91479 -1.75828,1.63642 -3.53243,3.21537 -5.66801,4.2826 -2.66312,1.56047 -5.33211,3.09843 -8.24864,4.06881 -3.96405,1.52403 -8.0565,2.58206 -12.04067,4.04441 -3.03807,0.96364 -6.13231,1.78404 -9.0213,3.20868 -1.98756,0.81196 -4.03195,1.47318 -6.06164,2.15592 -2.82536,0.8169 -5.65214,1.72222 -8.56007,2.12728 -2.76831,0.4147 -5.546,0.76987 -8.33021,1.03716 -2.27138,0.2452 -4.54117,0.25218 -6.82317,0.20836 -2.23128,0.0147 -4.46267,-0.001 -6.69396,0.0171 -1.92445,0.006 -3.84894,0.0127 -5.77331,-0.005 -2.78652,-0.0236 -5.57278,-0.0692 -8.35936,-0.0844 -3.63271,-0.0177 -7.26419,0.0237 -10.89661,0.0626 -2.62062,-0.0148 -5.24345,-0.0397 -7.86271,0.0583 0,0 0,-11.53186 0,-11.53186 z"
     inkscape:connector-curvature="0" />
  <path
     style="color:#000000;fill:#f8db30;fill-opacity:1;fill-rule:nonzero;stroke:none;stroke-width:1.95221603;marker:none;visibility:visible;display:inline;overflow:visible;enable-background:accumulate"
     id="path3264"
     d="m 308.71508,383.44568 c 2.73797,0.0863 5.47851,0.0565 8.21757,0.0499 3.50909,-3.8e-4 7.01733,0.0647 10.52643,0.0529 3.41183,0.003 6.82341,-0.0401 10.23519,-0.0407 2.68717,6.7e-4 5.37423,-0.0185 8.06135,-0.0257 2.07112,-0.0307 4.14211,-0.01 6.21323,-0.007 3.20668,0.0383 6.41358,0.0564 9.62053,0.0562 3.48045,-0.0107 6.96099,-0.0145 10.44142,0.003 3.62235,0.003 7.2447,0.002 10.86704,-0.0106 3.09762,-0.0241 6.1952,-0.0265 9.29282,-5e-5 3.73965,0.21506 7.33236,1.29478 10.80037,2.5711 2.48297,0.78916 4.78004,1.9649 7.11705,3.06039 2.12905,0.73569 4.03877,1.70448 5.64607,3.22228 1.76996,2.18145 3.15265,4.62121 4.52549,7.03726 1.4284,2.39147 2.86704,4.76882 3.96083,7.31683 0.84528,2.30186 1.5932,4.63437 2.39885,6.94974 0.81643,2.07155 1.24004,4.22841 1.44182,6.42181 0.28617,5.50289 0.14566,11.03249 0.1453,16.53404 0.0256,3.61992 -0.21506,9.40685 0.0311,-7.33831 0.004,-0.26793 0.0505,0.53397 0.0892,0.79942 0.12579,0.86518 0.14265,0.81439 0.38764,1.65782 0.67474,1.58103 1.862,2.93252 3.0733,4.17743 1.36696,1.28504 2.94374,2.35103 4.52726,3.38241 2.37654,1.37646 4.68517,2.85325 6.99461,4.32713 1.76864,1.21982 3.78979,1.9669 5.82881,2.66645 1.92567,0.5649 3.91553,0.9314 5.89531,1.28853 1.88995,0.33697 3.81494,0.3817 5.73171,0.42504 2.13363,0.034 4.09054,0.87544 6.11614,1.40205 1.67913,0.44918 3.43149,0.41667 5.14808,0.61607 1.73156,0.27256 3.47528,0.43045 5.2269,0.51982 2.52462,0.088 5.0518,0.11317 7.57801,0.11297 2.37575,-0.0179 4.75145,-0.0355 7.1273,-0.0317 2.01848,-0.0183 4.03695,-0.009 6.05545,-0.0106 2.27751,-0.0314 4.5571,0.0906 6.83033,-0.0577 2.52751,-0.4308 5.05853,-0.81506 7.61704,-1.03624 2.0188,-0.17647 4.04559,-0.20549 6.07127,-0.22645 1.14861,-0.008 0.5679,-0.008 1.74213,-0.003 0,0 -1.5e-4,10.2892 -1.5e-4,10.2892 l 0,0 c -1.16999,0.005 -0.59168,0.004 -1.73493,8.9e-4 -1.99435,0.004 -3.99039,0.0293 -5.97998,0.17073 -2.56884,0.2199 -5.10404,0.61856 -7.64446,1.03296 -2.2975,0.13543 -4.60004,0.0849 -6.90118,0.0984 -2.01832,-0.002 -4.0366,0.008 -6.05491,-0.008 -2.3763,0.007 -4.75254,-0.007 -7.12877,-0.0245 -2.54304,-0.004 -5.08667,0.0419 -7.62921,-0.0274 -1.77997,-0.0706 -3.55088,-0.22339 -5.30774,-0.51116 -1.76898,-0.20452 -3.57586,-0.17611 -5.30745,-0.62875 -1.94255,-0.50565 -3.80884,-1.34065 -5.84383,-1.42646 -1.97839,-0.0242 -3.97121,-0.0372 -5.91985,-0.40017 -2.03233,-0.37713 -4.0688,-0.76765 -6.06086,-1.30411 -2.1365,-0.71316 -4.26137,-1.46544 -6.10111,-2.75476 -2.28091,-1.48875 -4.57766,-2.96989 -7.00538,-4.2388 -1.63028,-1.06401 -3.26641,-2.13989 -4.7385,-3.39621 -1.36327,-1.25415 -2.54835,-2.69784 -3.55479,-4.22118 -2.07684,-4.85298 -0.71492,-10.29603 -0.8545,-15.44796 0.003,17.85353 0.0674,7.8238 -0.0699,3.71622 -0.12038,-2.17395 -0.38387,-4.33909 -1.1679,-6.40274 -0.82876,-2.30174 -1.59358,-4.61893 -2.36121,-6.93776 -0.94746,-2.6007 -2.3431,-5.00813 -3.81981,-7.37209 -1.28528,-2.37964 -2.7307,-4.67125 -4.26961,-6.91229 -1.34983,-1.62099 -3.18906,-2.52218 -5.22082,-3.21618 -2.34871,-1.04128 -4.56044,-2.35142 -7.03703,-3.13429 -3.32483,-1.27519 -6.77467,-2.42815 -10.39335,-2.57265 -3.09762,0.0265 -6.1952,0.024 -9.29282,-4e-5 -3.62234,-0.0127 -7.2447,-0.0134 -10.86705,-0.0106 -3.48042,0.0175 -6.96097,0.0136 -10.44143,0.003 -3.20693,-10e-5 -6.41384,0.018 -9.62052,0.0562 -2.07111,0.004 -4.1421,0.0242 -6.21322,-0.007 -2.68713,-0.008 -5.37419,-0.0264 -8.06135,-0.0257 -3.41179,-5.4e-4 -6.82336,-0.0434 -10.23519,-0.0407 -3.5091,-0.0118 -7.01734,0.0533 -10.52644,0.0529 -2.73905,-0.007 -5.47961,-0.0364 -8.21756,0.0499 0,0 0,-10.31287 0,-10.31287 z"
     inkscape:connector-curvature="0" />
</svg>
